<svg width="33" height="31" viewBox="0 0 33 31" fill="none" xmlns="http://www.w3.org/2000/svg">
<path d="M23.3199 21.1274C19.3704 23.3519 17.1159 27.9599 16.4004 29.2499V8.9999C17.0229 7.8809 18.8034 4.6739 21.8484 2.4959C23.1309 1.5779 23.7714 1.1189 24.5859 1.5359C25.4004 1.9559 25.4004 2.8799 25.4004 4.7264V17.9864C25.4004 18.9854 25.4004 19.4849 25.1949 19.8344C24.9909 20.1854 24.4329 20.4989 23.3199 21.1274Z" stroke="#BE963C" stroke-width="2" stroke-linecap="round" stroke-linejoin="round"/>
<path d="M16.4004 8.70911C15.3699 7.62611 12.3834 5.05511 7.37039 4.15511C4.83239 3.69761 3.56339 3.46961 2.48039 4.34411C1.40039 5.22011 1.40039 6.63911 1.40039 9.48161V19.6951C1.40039 22.2931 1.40039 23.5921 2.09489 24.4036C2.78789 25.2136 4.31489 25.4896 7.37189 26.0386C10.0944 26.5276 12.2199 27.3091 13.7589 28.0936C15.2739 28.8646 16.0299 29.2501 16.4004 29.2501C16.7709 29.2501 17.5284 28.8646 19.0404 28.0936C20.5809 27.3091 22.7064 26.5276 25.4304 26.0386C28.4844 25.4896 30.0129 25.2136 30.7059 24.4036C31.4004 23.5921 31.4004 22.2931 31.4004 19.6936V9.48311C31.4004 6.64211 31.4004 5.22161 30.3204 4.34561C29.2359 3.46961 26.9004 4.15511 25.4004 5.25011" stroke="#BE963C" stroke-width="2" stroke-linecap="round" stroke-linejoin="round"/>
</svg>
