<svg width="14" height="13" viewBox="0 0 14 13" fill="none" xmlns="http://www.w3.org/2000/svg">
<path d="M7 9.83333C8 9.83333 8 9.16667 9 9.16667C10 9.16667 10 9.83333 11 9.83333C12 9.83333 12 9.16667 13 9.16667L12.2193 6.434C11.9533 5.50333 11.82 5.038 11.464 4.76867C11.1073 4.5 10.6233 4.5 9.65533 4.5H4.34467C3.37667 4.5 2.89333 4.5 2.536 4.76867C2.18 5.038 2.04733 5.50333 1.78067 6.434L1 9.16667C2 9.16667 2 9.83333 3 9.83333C4 9.83333 4 9.16667 5 9.16667C6 9.16667 6 9.83333 7 9.83333ZM7 9.83333V12.5M4.33333 4.5V3.83333C4.33333 3.12609 4.61428 2.44781 5.11438 1.94772C5.61448 1.44762 6.29276 1.16667 7 1.16667M7 1.16667C7.70724 1.16667 8.38552 1.44762 8.88562 1.94772C9.38572 2.44781 9.66667 3.12609 9.66667 3.83333V4.5M7 1.16667V0.5M7 12.5H8.33333M7 12.5H5.66667" stroke="#E9E3D7" stroke-linecap="round" stroke-linejoin="round"/>
</svg>
