<svg width="14" height="12" viewBox="0 0 14 12" fill="none" xmlns="http://www.w3.org/2000/svg">
<path fill-rule="evenodd" clip-rule="evenodd" d="M7.57574 2.34844C7.79988 2.2213 7.97562 2.02353 8.07553 1.78601C8.17544 1.54848 8.1939 1.28455 8.12803 1.03543C8.06216 0.786304 7.91566 0.565997 7.7114 0.408893C7.50715 0.25179 7.25662 0.166731 6.99894 0.166993C6.74125 0.167254 6.4909 0.252822 6.28697 0.41034C6.08303 0.567857 5.93698 0.788461 5.87161 1.03772C5.80625 1.28698 5.82525 1.55086 5.92564 1.78819C6.02603 2.02551 6.20217 2.22292 6.42657 2.34961L6.42074 2.36011C6.03865 3.15752 5.50782 4.29969 4.68824 4.72844C4.01507 5.08019 3.04907 4.90344 2.33157 4.77161C2.32006 4.60845 2.26305 4.45179 2.16702 4.3194C2.07098 4.18701 1.93976 4.08418 1.78824 4.02259C1.63672 3.961 1.47098 3.94311 1.3098 3.97095C1.14863 3.99879 0.998493 4.07124 0.876416 4.18009C0.754339 4.28894 0.665214 4.42983 0.619154 4.58677C0.573094 4.74371 0.571942 4.91041 0.615829 5.06797C0.659716 5.22553 0.746886 5.36763 0.867447 5.47816C0.988008 5.58869 1.13713 5.66321 1.2979 5.69327L3.01757 10.1324C3.1451 10.4615 3.36916 10.7444 3.66034 10.9439C3.95152 11.1433 4.29621 11.2501 4.64915 11.2501H9.35082C9.70377 11.2501 10.0485 11.1433 10.3396 10.9439C10.6308 10.7444 10.8549 10.4615 10.9824 10.1324L12.7015 5.69327C12.8612 5.66354 13.0096 5.58991 13.1298 5.48063C13.2501 5.37134 13.3376 5.23073 13.3824 5.07454C13.4273 4.91835 13.4277 4.75276 13.3838 4.59632C13.3398 4.43988 13.2531 4.29877 13.1335 4.18881C13.0138 4.07884 12.8659 4.00437 12.7064 3.97374C12.5468 3.9431 12.3818 3.95751 12.2299 4.01535C12.0781 4.07319 11.9453 4.17217 11.8466 4.30121C11.7478 4.43025 11.6869 4.58425 11.6707 4.74594C10.9363 4.84102 9.98957 4.96236 9.31174 4.60827C8.50849 4.18827 7.97007 3.12486 7.57574 2.34844ZM7.01457 3.72919C7.46257 4.45602 7.99982 5.23827 8.77157 5.64252C9.54565 6.04677 10.4982 6.02636 11.3499 5.95344L9.89449 9.71069C9.85202 9.8204 9.77738 9.9147 9.68035 9.98122C9.58333 10.0477 9.46846 10.0834 9.35082 10.0834H4.64915C4.53152 10.0834 4.41665 10.0477 4.31962 9.98122C4.2226 9.9147 4.14795 9.8204 4.10549 9.71069L2.6699 6.00477C3.50932 6.11211 4.45899 6.16461 5.2284 5.76211C6.03224 5.34211 6.57007 4.49511 7.01457 3.72919Z" fill="#E9E3D7"/>
</svg>
