<svg width="18" height="19" viewBox="0 0 18 19" fill="none" xmlns="http://www.w3.org/2000/svg">
<path d="M8.14289 6.92857H12.4286M5.57146 6.92857H6.42861M8.14289 9.5H12.4286M5.57146 9.5H6.42861M8.14289 12.0714H12.4286M5.57146 12.0714H6.42861M14.1429 13.7857V5.21429C14.1429 4.75963 13.9623 4.32359 13.6408 4.0021C13.3193 3.68061 12.8833 3.5 12.4286 3.5H5.57146C5.11681 3.5 4.68077 3.68061 4.35928 4.0021C4.03779 4.32359 3.85718 4.75963 3.85718 5.21429V13.7857C3.85718 14.2404 4.03779 14.6764 4.35928 14.9979C4.68077 15.3194 5.11681 15.5 5.57146 15.5H12.4286C12.8833 15.5 13.3193 15.3194 13.6408 14.9979C13.9623 14.6764 14.1429 14.2404 14.1429 13.7857Z" stroke="#E9E3D7" stroke-linecap="round" stroke-linejoin="round"/>
</svg>
