<svg width="32" height="32" viewBox="0 0 32 32" fill="none" xmlns="http://www.w3.org/2000/svg">
<path d="M29.5 0.25H2.5C1.2625 0.25 0.25 1.2625 0.25 2.5V29.5C0.25 30.7375 1.2625 31.75 2.5 31.75H19.375V29.5C19.375 26.35 21.85 23.875 25 23.875V21.625C20.6125 21.625 17.125 25.1125 17.125 29.5H13.75V25H11.5V29.5H2.5V2.5H11.5V18.25H13.75V12.625H18.25V10.375H13.75V2.5H29.5V10.375H25V12.625H29.5V29.5H25V31.75H29.5C30.7375 31.75 31.75 30.7375 31.75 29.5V2.5C31.75 1.2625 30.7375 0.25 29.5 0.25Z" fill="#BE963C"/>
</svg>
