<svg width="15" height="17" viewBox="0 0 15 17" fill="none" xmlns="http://www.w3.org/2000/svg">
<path d="M7.5 7.5C6.83696 7.5 6.20107 7.23661 5.73223 6.76777C5.26339 6.29893 5 5.66304 5 5C5 4.33696 5.26339 3.70107 5.73223 3.23223C6.20107 2.76339 6.83696 2.5 7.5 2.5C8.16304 2.5 8.79893 2.76339 9.26777 3.23223C9.73661 3.70107 10 4.33696 10 5C10 5.66304 9.73661 6.29893 9.26777 6.76777C8.79893 7.23661 8.16304 7.5 7.5 7.5ZM7.5 3.5C6.67 3.5 6 4.17 6 5C6 5.83 6.67 6.5 7.5 6.5C8.33 6.5 9 5.83 9 5C9 4.17 8.33 3.5 7.5 3.5Z" fill="#E9E3D7"/>
<path d="M13.5 11.5C13.22 11.5 13 11.28 13 11C13 10.72 13.22 10.5 13.5 10.5C13.78 10.5 14 10.28 14 10C14 9.33696 13.7366 8.70107 13.2678 8.23223C12.7989 7.76339 12.163 7.5 11.5 7.5H10.5C10.22 7.5 10 7.28 10 7C10 6.72 10.22 6.5 10.5 6.5C11.33 6.5 12 5.83 12 5C12 4.17 11.33 3.5 10.5 3.5C10.22 3.5 10 3.28 10 3C10 2.72 10.22 2.5 10.5 2.5C11.163 2.5 11.7989 2.76339 12.2678 3.23223C12.7366 3.70107 13 4.33696 13 5C13 5.62 12.78 6.18 12.4 6.62C13.89 7.02 15 8.38 15 10C15 10.83 14.33 11.5 13.5 11.5ZM1.5 11.5C0.67 11.5 0 10.83 0 10C0 8.38 1.1 7.02 2.6 6.62C2.23 6.18 2 5.62 2 5C2 4.33696 2.26339 3.70107 2.73223 3.23223C3.20107 2.76339 3.83696 2.5 4.5 2.5C4.78 2.5 5 2.72 5 3C5 3.28 4.78 3.5 4.5 3.5C3.67 3.5 3 4.17 3 5C3 5.83 3.67 6.5 4.5 6.5C4.78 6.5 5 6.72 5 7C5 7.28 4.78 7.5 4.5 7.5H3.5C2.83696 7.5 2.20107 7.76339 1.73223 8.23223C1.26339 8.70107 1 9.33696 1 10C1 10.28 1.22 10.5 1.5 10.5C1.78 10.5 2 10.72 2 11C2 11.28 1.78 11.5 1.5 11.5ZM10.5 14.5H4.5C3.67 14.5 3 13.83 3 13V12C3 10.07 4.57 8.5 6.5 8.5H8.5C10.43 8.5 12 10.07 12 12V13C12 13.83 11.33 14.5 10.5 14.5ZM6.5 9.5C5.83696 9.5 5.20107 9.76339 4.73223 10.2322C4.26339 10.7011 4 11.337 4 12V13C4 13.28 4.22 13.5 4.5 13.5H10.5C10.78 13.5 11 13.28 11 13V12C11 11.337 10.7366 10.7011 10.2678 10.2322C9.79893 9.76339 9.16304 9.5 8.5 9.5H6.5Z" fill="#E9E3D7"/>
</svg>
