<svg width="50" height="37" viewBox="0 0 50 37" fill="none" xmlns="http://www.w3.org/2000/svg">
<path d="M17.7178 36.536V6.57452H29.1921C30.407 6.57452 30.9358 5.52323 31.0483 4.99759V1.84375H0V4.99759C0.134992 6.11896 1.29368 6.51611 1.85615 6.57452H13.1618V36.536C15.0517 37.3771 16.9865 36.8865 17.7178 36.536Z" fill="url(#paint0_linear_1157_10500)"/>
<path d="M24.8047 18.4878V35.834C24.8047 36.5348 25.2547 36.71 25.4796 36.71H27.842C28.517 36.5699 28.6857 36.0676 28.6857 35.834V22.3425H40.835L45.7285 35.4835C46.2685 36.7451 47.0784 36.9437 47.4159 36.8853L48.9346 36.1844C50.0145 35.6237 49.947 34.8995 49.7783 34.6075L44.2098 20.24C48.3946 17.016 49.7783 10.9537 49.947 8.32545V1.84255C50.217 0.581009 49.3846 0.265625 48.9346 0.265625H46.066V8.32545C45.661 10.8485 44.8848 12.7642 44.5473 13.4066C43.4674 15.6494 40.7225 17.7286 39.4851 18.4878H24.8047Z" fill="url(#paint1_linear_1157_10500)"/>
<defs>
<linearGradient id="paint0_linear_1157_10500" x1="15.5241" y1="1.84375" x2="15.5241" y2="37.0004" gradientUnits="userSpaceOnUse">
<stop stop-color="#DCA749"/>
<stop offset="0.455" stop-color="#F1C86C"/>
<stop offset="1" stop-color="#C98C31"/>
</linearGradient>
<linearGradient id="paint1_linear_1157_10500" x1="37.4022" y1="0.265625" x2="37.4022" y2="36.8943" gradientUnits="userSpaceOnUse">
<stop stop-color="#DCA749"/>
<stop offset="0.455" stop-color="#F1C86C"/>
<stop offset="1" stop-color="#C98C31"/>
</linearGradient>
</defs>
</svg>
