<svg width="22" height="22" viewBox="0 0 22 22" fill="none" xmlns="http://www.w3.org/2000/svg">
<path d="M12.625 16.2812C12.625 16.6026 12.5297 16.9168 12.3511 17.1841C12.1726 17.4513 11.9188 17.6596 11.6219 17.7826C11.3249 17.9055 10.9982 17.9377 10.683 17.875C10.3678 17.8123 10.0782 17.6576 9.85096 17.4303C9.6237 17.203 9.46893 16.9135 9.40623 16.5983C9.34353 16.2831 9.37571 15.9563 9.4987 15.6594C9.62169 15.3625 9.82997 15.1087 10.0972 14.9301C10.3644 14.7516 10.6786 14.6562 11 14.6562C11.431 14.6562 11.8443 14.8275 12.1491 15.1322C12.4538 15.4369 12.625 15.8503 12.625 16.2812ZM21.9688 11C21.9688 13.1694 21.3254 15.2901 20.1202 17.0939C18.9149 18.8977 17.2018 20.3036 15.1976 21.1338C13.1933 21.964 10.9878 22.1812 8.86011 21.758C6.73238 21.3348 4.77793 20.2901 3.24393 18.7561C1.70992 17.2221 0.665248 15.2676 0.242016 13.1399C-0.181215 11.0122 0.0360026 8.80672 0.866201 6.80244C1.6964 4.79816 3.10229 3.08508 4.90609 1.87982C6.7099 0.674556 8.83059 0.03125 11 0.03125C13.9081 0.0344759 16.6962 1.19114 18.7525 3.24749C20.8089 5.30383 21.9655 8.0919 21.9688 11ZM19.5313 11C19.5313 9.31268 19.0309 7.66325 18.0935 6.26029C17.1561 4.85733 15.8237 3.76386 14.2648 3.11815C12.7059 2.47244 10.9905 2.3035 9.33564 2.63268C7.68074 2.96186 6.16062 3.77438 4.9675 4.96749C3.77438 6.16061 2.96186 7.68073 2.63268 9.33564C2.3035 10.9905 2.47245 12.7059 3.11816 14.2648C3.76387 15.8236 4.85734 17.156 6.2603 18.0935C7.66325 19.0309 9.31268 19.5312 11 19.5312C13.2619 19.5288 15.4304 18.6292 17.0298 17.0298C18.6292 15.4304 19.5288 13.2619 19.5313 11ZM11 4.5C8.5361 4.5 6.53125 6.32203 6.53125 8.5625V8.96875C6.53125 9.29198 6.65966 9.60198 6.88822 9.83054C7.11678 10.0591 7.42677 10.1875 7.75 10.1875C8.07324 10.1875 8.38323 10.0591 8.61179 9.83054C8.84035 9.60198 8.96875 9.29198 8.96875 8.96875V8.5625C8.96875 7.66672 9.88282 6.9375 11 6.9375C12.1172 6.9375 13.0313 7.66672 13.0313 8.5625C13.0313 9.45828 12.1172 10.1875 11 10.1875C10.6768 10.1875 10.3668 10.3159 10.1382 10.5445C9.90966 10.773 9.78125 11.083 9.78125 11.4062V12.2187C9.78053 12.5199 9.89129 12.8106 10.0922 13.0349C10.2931 13.2591 10.5699 13.4011 10.8693 13.4334C11.1686 13.4657 11.4694 13.386 11.7135 13.2098C11.9576 13.0335 12.1278 12.7731 12.1913 12.4787C14.0784 12.0034 15.4688 10.4282 15.4688 8.5625C15.4688 6.32203 13.4639 4.5 11 4.5Z" fill="#E9E3D7"/>
</svg>
