<svg width="33" height="32" viewBox="0 0 33 32" fill="none" xmlns="http://www.w3.org/2000/svg">
<path d="M8.09961 3.5V0.5H11.0996V3.5H20.0996V0.5H23.0996V3.5H29.0996C29.4974 3.5 29.879 3.65804 30.1603 3.93934C30.4416 4.22064 30.5996 4.60218 30.5996 5V12.5H27.5996V6.5H23.0996V9.5H20.0996V6.5H11.0996V9.5H8.09961V6.5H3.59961V27.5H12.5996V30.5H2.09961C1.70178 30.5 1.32025 30.342 1.03895 30.0607C0.757645 29.7794 0.599609 29.3978 0.599609 29V5C0.599609 4.60218 0.757645 4.22064 1.03895 3.93934C1.32025 3.65804 1.70178 3.5 2.09961 3.5H8.09961ZM23.0996 17C21.5083 17 19.9822 17.6321 18.857 18.7574C17.7318 19.8826 17.0996 21.4087 17.0996 23C17.0996 24.5913 17.7318 26.1174 18.857 27.2426C19.9822 28.3679 21.5083 29 23.0996 29C24.6909 29 26.217 28.3679 27.3422 27.2426C28.4675 26.1174 29.0996 24.5913 29.0996 23C29.0996 21.4087 28.4675 19.8826 27.3422 18.7574C26.217 17.6321 24.6909 17 23.0996 17ZM14.0996 23C14.0996 21.8181 14.3324 20.6478 14.7847 19.5558C15.237 18.4639 15.8999 17.4718 16.7356 16.636C17.5714 15.8003 18.5635 15.1374 19.6555 14.6851C20.7474 14.2328 21.9177 14 23.0996 14C24.2815 14 25.4518 14.2328 26.5438 14.6851C27.6357 15.1374 28.6278 15.8003 29.4636 16.636C30.2993 17.4718 30.9622 18.4639 31.4145 19.5558C31.8668 20.6478 32.0996 21.8181 32.0996 23C32.0996 25.3869 31.1514 27.6761 29.4636 29.364C27.7757 31.0518 25.4866 32 23.0996 32C20.7127 32 18.4235 31.0518 16.7356 29.364C15.0478 27.6761 14.0996 25.3869 14.0996 23ZM21.5996 18.5V23.621L25.0391 27.0605L27.1601 24.9395L24.5996 22.379V18.5H21.5996Z" fill="#BE963C"/>
</svg>
