<svg width="97" height="123" viewBox="0 0 97 123" fill="none" xmlns="http://www.w3.org/2000/svg">
<path d="M86.8418 34.7242V16.4844H73.9444V34.7242H86.8418Z" fill="url(#paint0_linear_690_9797)"/>
<g style="mix-blend-mode:saturation">
<path d="M86.8418 34.7242V16.4844H73.9444V34.7242H86.8418Z" fill="url(#paint1_linear_690_9797)" style="mix-blend-mode:multiply"/>
</g>
<path d="M87.2028 36.7879C88.1314 29.3671 88.1314 21.8596 87.2028 14.4389C89.4728 14.1441 91.7599 13.8667 94.0298 13.572C94.4426 13.52 94.9068 13.572 95.2508 13.7454C96.2654 21.8423 96.2654 29.3671 95.2508 37.4641C94.8724 37.6721 94.4769 37.7068 94.0986 37.6721C91.7943 37.3774 89.5071 37.0826 87.2028 36.7879Z" fill="url(#paint2_linear_690_9797)"/>
<g style="mix-blend-mode:saturation">
<path d="M87.2028 36.7879C88.1314 29.3671 88.1314 21.8596 87.2028 14.4389C89.4728 14.1441 91.7599 13.8667 94.0298 13.572C94.4426 13.52 94.9068 13.572 95.2508 13.7454C96.2654 21.8423 96.2654 29.3671 95.2508 37.4641C94.8724 37.6721 94.4769 37.7068 94.0986 37.6721C91.7943 37.3774 89.5071 37.0826 87.2028 36.7879Z" fill="url(#paint3_linear_690_9797)" style="mix-blend-mode:multiply"/>
</g>
<path d="M87.2026 14.4395H84.4512L80.3928 16.4854H86.8415H87.4434L87.2026 14.4395Z" fill="url(#paint4_radial_690_9797)"/>
<path d="M87.2026 36.7879H84.4512L80.3928 34.7246H86.8415H87.4434L87.2026 36.7879Z" fill="url(#paint5_radial_690_9797)"/>
<path d="M86.8418 71.1363V52.8965H73.9444V71.1363H86.8418Z" fill="url(#paint6_linear_690_9797)"/>
<g style="mix-blend-mode:saturation">
<path d="M86.8418 71.1363V52.8965H73.9444V71.1363H86.8418Z" fill="url(#paint7_linear_690_9797)" style="mix-blend-mode:multiply"/>
</g>
<path d="M87.2028 73.2C88.1314 65.7792 88.1314 58.2718 87.2028 50.851C89.4728 50.5562 91.7599 50.2788 94.0298 49.9841C94.4426 49.9321 94.9068 49.9841 95.2508 50.1575C96.2654 58.2544 96.2654 65.7792 95.2508 73.8762C94.8724 74.0842 94.4769 74.1189 94.0986 74.0842C91.7943 73.7895 89.5071 73.4947 87.2028 73.2Z" fill="url(#paint8_linear_690_9797)"/>
<g style="mix-blend-mode:saturation">
<path d="M87.2028 73.2C88.1314 65.7792 88.1314 58.2718 87.2028 50.851C89.4728 50.5562 91.7599 50.2788 94.0298 49.9841C94.4426 49.9321 94.9068 49.9841 95.2508 50.1575C96.2654 58.2544 96.2654 65.7792 95.2508 73.8762C94.8724 74.0842 94.4769 74.1189 94.0986 74.0842C91.7943 73.7895 89.5071 73.4947 87.2028 73.2Z" fill="url(#paint9_linear_690_9797)" style="mix-blend-mode:multiply"/>
</g>
<path d="M87.2026 50.8516H84.4512L80.3928 52.8975H86.8415H87.4434L87.2026 50.8516Z" fill="url(#paint10_radial_690_9797)"/>
<path d="M87.2026 73.2H84.4512L80.3928 71.1367H86.8415H87.4434L87.2026 73.2Z" fill="url(#paint11_radial_690_9797)"/>
<path d="M86.8418 105.814V87.5742H73.9444V105.814H86.8418Z" fill="url(#paint12_linear_690_9797)"/>
<g style="mix-blend-mode:saturation">
<path d="M86.8418 105.814V87.5742H73.9444V105.814H86.8418Z" fill="url(#paint13_linear_690_9797)" style="mix-blend-mode:multiply"/>
</g>
<path d="M87.2028 107.878C88.1314 100.457 88.1314 92.9495 87.2028 85.5287C89.4728 85.234 91.7599 84.9566 94.0298 84.6618C94.4426 84.6098 94.9068 84.6618 95.2508 84.8352C96.2654 92.9322 96.2654 100.457 95.2508 108.554C94.8724 108.762 94.4769 108.797 94.0986 108.762C91.7943 108.467 89.5071 108.172 87.2028 107.878Z" fill="url(#paint14_linear_690_9797)"/>
<g style="mix-blend-mode:saturation">
<path d="M87.2028 107.878C88.1314 100.457 88.1314 92.9495 87.2028 85.5287C89.4728 85.234 91.7599 84.9566 94.0298 84.6618C94.4426 84.6098 94.9068 84.6618 95.2508 84.8352C96.2654 92.9322 96.2654 100.457 95.2508 108.554C94.8724 108.762 94.4769 108.797 94.0986 108.762C91.7943 108.467 89.5071 108.172 87.2028 107.878Z" fill="url(#paint15_linear_690_9797)" style="mix-blend-mode:multiply"/>
</g>
<path d="M87.2026 85.5293H84.4512L80.3928 87.5752H86.8415H87.4434L87.2026 85.5293Z" fill="url(#paint16_radial_690_9797)"/>
<path d="M87.2026 107.878H84.4512L80.3928 105.814H86.8415H87.4434L87.2026 107.878Z" fill="url(#paint17_radial_690_9797)"/>
<path d="M9.16992 34.7261V16.4863H22.0673V34.7261H9.16992Z" fill="url(#paint18_linear_690_9797)"/>
<g style="mix-blend-mode:saturation">
<path d="M9.16992 34.7261V16.4863H22.0673V34.7261H9.16992Z" fill="url(#paint19_linear_690_9797)" style="mix-blend-mode:multiply"/>
</g>
<path d="M8.80891 36.7898C7.8803 29.3691 7.8803 21.8616 8.80891 14.4408C6.53897 14.1461 4.25183 13.8687 1.98189 13.5739C1.56917 13.5219 1.10488 13.5739 0.760946 13.7473C-0.253649 21.8443 -0.253649 29.3691 0.760946 37.466C1.13927 37.6741 1.53479 37.7088 1.91311 37.6741C4.21745 37.3793 6.50457 37.0846 8.80891 36.7898Z" fill="url(#paint20_linear_690_9797)"/>
<g style="mix-blend-mode:saturation">
<path d="M8.80891 36.7898C7.8803 29.3691 7.8803 21.8616 8.80891 14.4408C6.53897 14.1461 4.25183 13.8687 1.98189 13.5739C1.56917 13.5219 1.10488 13.5739 0.760946 13.7473C-0.253649 21.8443 -0.253649 29.3691 0.760946 37.466C1.13927 37.6741 1.53479 37.7088 1.91311 37.6741C4.21745 37.3793 6.50457 37.0846 8.80891 36.7898Z" fill="url(#paint21_linear_690_9797)" style="mix-blend-mode:multiply"/>
</g>
<path d="M8.80911 14.4414H11.5606L15.6189 16.4873H9.17025H8.56836L8.80911 14.4414Z" fill="url(#paint22_radial_690_9797)"/>
<path d="M8.80911 36.7898H11.5606L15.6189 34.7266H9.17025H8.56836L8.80911 36.7898Z" fill="url(#paint23_radial_690_9797)"/>
<path d="M9.16992 71.1363V52.8965H22.0673V71.1363H9.16992Z" fill="url(#paint24_linear_690_9797)"/>
<g style="mix-blend-mode:saturation">
<path d="M9.16992 71.1363V52.8965H22.0673V71.1363H9.16992Z" fill="url(#paint25_linear_690_9797)" style="mix-blend-mode:multiply"/>
</g>
<path d="M8.80891 73.2C7.8803 65.7792 7.8803 58.2718 8.80891 50.851C6.53897 50.5562 4.25183 50.2788 1.98189 49.9841C1.56917 49.9321 1.10488 49.9841 0.760946 50.1575C-0.253649 58.2544 -0.253649 65.7792 0.760946 73.8762C1.13927 74.0842 1.53479 74.1189 1.91311 74.0842C4.21745 73.7895 6.50457 73.4947 8.80891 73.2Z" fill="url(#paint26_linear_690_9797)"/>
<g style="mix-blend-mode:saturation">
<path d="M8.80891 73.2C7.8803 65.7792 7.8803 58.2718 8.80891 50.851C6.53897 50.5562 4.25183 50.2788 1.98189 49.9841C1.56917 49.9321 1.10488 49.9841 0.760946 50.1575C-0.253649 58.2544 -0.253649 65.7792 0.760946 73.8762C1.13927 74.0842 1.53479 74.1189 1.91311 74.0842C4.21745 73.7895 6.50457 73.4947 8.80891 73.2Z" fill="url(#paint27_linear_690_9797)" style="mix-blend-mode:multiply"/>
</g>
<path d="M8.80911 50.8516H11.5606L15.6189 52.8975H9.17025H8.56836L8.80911 50.8516Z" fill="url(#paint28_radial_690_9797)"/>
<path d="M8.80911 73.2H11.5606L15.6189 71.1367H9.17025H8.56836L8.80911 73.2Z" fill="url(#paint29_radial_690_9797)"/>
<path d="M9.16992 105.81V87.5703H22.0673V105.81H9.16992Z" fill="url(#paint30_linear_690_9797)"/>
<g style="mix-blend-mode:saturation">
<path d="M9.16992 105.81V87.5703H22.0673V105.81H9.16992Z" fill="url(#paint31_linear_690_9797)" style="mix-blend-mode:multiply"/>
</g>
<path d="M8.80891 107.874C7.8803 100.453 7.8803 92.9456 8.80891 85.5248C6.53897 85.2301 4.25183 84.9527 1.98189 84.6579C1.56917 84.6059 1.10488 84.6579 0.760946 84.8313C-0.253649 92.9283 -0.253649 100.453 0.760946 108.55C1.13927 108.758 1.53479 108.793 1.91311 108.758C4.21745 108.463 6.50457 108.169 8.80891 107.874Z" fill="url(#paint32_linear_690_9797)"/>
<g style="mix-blend-mode:saturation">
<path d="M8.80891 107.874C7.8803 100.453 7.8803 92.9456 8.80891 85.5248C6.53897 85.2301 4.25183 84.9527 1.98189 84.6579C1.56917 84.6059 1.10488 84.6579 0.760946 84.8313C-0.253649 92.9283 -0.253649 100.453 0.760946 108.55C1.13927 108.758 1.53479 108.793 1.91311 108.758C4.21745 108.463 6.50457 108.169 8.80891 107.874Z" fill="url(#paint33_linear_690_9797)" style="mix-blend-mode:multiply"/>
</g>
<path d="M8.80911 85.5254H11.5606L15.6189 87.5713H9.17025H8.56836L8.80911 85.5254Z" fill="url(#paint34_radial_690_9797)"/>
<path d="M8.80911 107.874H11.5606L15.6189 105.811H9.17025H8.56836L8.80911 107.874Z" fill="url(#paint35_radial_690_9797)"/>
<path fill-rule="evenodd" clip-rule="evenodd" d="M18.0397 107.358V14.9629C18.0397 6.69254 24.6948 0 32.8803 0H62.9914C71.1942 0 77.832 6.69254 77.832 14.9629V107.376C77.832 115.646 71.177 122.339 62.9914 122.339H32.8803C24.6776 122.339 18.0397 115.646 18.0397 107.376V107.358Z" fill="url(#paint36_linear_690_9797)"/>
<path style="mix-blend-mode:multiply" fill-rule="evenodd" clip-rule="evenodd" d="M18.0397 107.358V14.9629C18.0397 6.69254 24.6948 0 32.8803 0H62.9914C71.1942 0 77.832 6.69254 77.832 14.9629V107.376C77.832 115.646 71.177 122.339 62.9914 122.339H32.8803C24.6776 122.339 18.0397 115.646 18.0397 107.376V107.358Z" fill="url(#paint37_linear_690_9797)"/>
<defs>
<linearGradient id="paint0_linear_690_9797" x1="86.6698" y1="25.6043" x2="73.6521" y2="25.6043" gradientUnits="userSpaceOnUse">
<stop stop-color="#C2A793"/>
<stop offset="0.09" stop-color="#C8B09E"/>
<stop offset="0.33" stop-color="#D9C9BC"/>
<stop offset="0.38" stop-color="#DAC9BC"/>
<stop offset="0.9" stop-color="#E4D2C4"/>
<stop offset="0.96" stop-color="#F7E4D5"/>
<stop offset="1" stop-color="#FFEBDB"/>
</linearGradient>
<linearGradient id="paint1_linear_690_9797" x1="87.0335" y1="25.5941" x2="73.6994" y2="25.5941" gradientUnits="userSpaceOnUse">
<stop stop-color="#929292"/>
<stop offset="0.1" stop-color="#D8D8D8"/>
<stop offset="0.78" stop-color="#E8E8E8"/>
<stop offset="0.89" stop-color="#DDDDDD"/>
<stop offset="0.92" stop-color="#E3E3E3"/>
<stop offset="1" stop-color="#A2A2A2"/>
</linearGradient>
<linearGradient id="paint2_linear_690_9797" x1="96.0934" y1="25.6221" x2="87.3576" y2="25.6221" gradientUnits="userSpaceOnUse">
<stop stop-color="#FFEBDB"/>
<stop offset="0.09" stop-color="#F7E4D5"/>
<stop offset="0.23" stop-color="#E4D2C4"/>
<stop offset="0.63" stop-color="#DAC9BC"/>
<stop offset="0.67" stop-color="#D9C9BC"/>
<stop offset="0.91" stop-color="#C8B09E"/>
<stop offset="1" stop-color="#C2A793"/>
</linearGradient>
<linearGradient id="paint3_linear_690_9797" x1="87.1737" y1="25.6183" x2="96.019" y2="25.6183" gradientUnits="userSpaceOnUse">
<stop stop-color="#B0B0B0"/>
<stop offset="0.09" stop-color="#C9C9C9"/>
<stop offset="0.78" stop-color="#EEEEEE"/>
<stop offset="0.89" stop-color="#D2D2D2"/>
<stop offset="0.92" stop-color="#C0BEBE"/>
<stop offset="1" stop-color="#ACACAC"/>
</linearGradient>
<radialGradient id="paint4_radial_690_9797" cx="0" cy="0" r="1" gradientUnits="userSpaceOnUse" gradientTransform="translate(83.9515 15.4415) rotate(90) scale(1.02296 3.52529)">
<stop stop-color="white"/>
<stop offset="0.14" stop-color="#EBEBEB"/>
<stop offset="0.47" stop-color="#E0DFDF"/>
<stop offset="0.84" stop-color="#C0C0C0"/>
<stop offset="0.94" stop-color="#C8C8C8"/>
<stop offset="1" stop-color="#ADADAD"/>
</radialGradient>
<radialGradient id="paint5_radial_690_9797" cx="0" cy="0" r="1" gradientUnits="userSpaceOnUse" gradientTransform="translate(83.9515 35.7352) rotate(90) scale(1.03163 3.52529)">
<stop stop-color="white"/>
<stop offset="0.14" stop-color="#EBEBEB"/>
<stop offset="0.47" stop-color="#E0DFDF"/>
<stop offset="0.84" stop-color="#C0C0C0"/>
<stop offset="0.94" stop-color="#C8C8C8"/>
<stop offset="1" stop-color="#ADADAD"/>
</radialGradient>
<linearGradient id="paint6_linear_690_9797" x1="86.6698" y1="62.0164" x2="73.6521" y2="62.0164" gradientUnits="userSpaceOnUse">
<stop stop-color="#C2A793"/>
<stop offset="0.09" stop-color="#C8B09E"/>
<stop offset="0.33" stop-color="#D9C9BC"/>
<stop offset="0.38" stop-color="#DAC9BC"/>
<stop offset="0.9" stop-color="#E4D2C4"/>
<stop offset="0.96" stop-color="#F7E4D5"/>
<stop offset="1" stop-color="#FFEBDB"/>
</linearGradient>
<linearGradient id="paint7_linear_690_9797" x1="87.0335" y1="62.0062" x2="73.6994" y2="62.0062" gradientUnits="userSpaceOnUse">
<stop stop-color="#929292"/>
<stop offset="0.1" stop-color="#D8D8D8"/>
<stop offset="0.78" stop-color="#E8E8E8"/>
<stop offset="0.89" stop-color="#DDDDDD"/>
<stop offset="0.92" stop-color="#E3E3E3"/>
<stop offset="1" stop-color="#A2A2A2"/>
</linearGradient>
<linearGradient id="paint8_linear_690_9797" x1="96.0934" y1="62.0342" x2="87.3576" y2="62.0342" gradientUnits="userSpaceOnUse">
<stop stop-color="#FFEBDB"/>
<stop offset="0.09" stop-color="#F7E4D5"/>
<stop offset="0.23" stop-color="#E4D2C4"/>
<stop offset="0.63" stop-color="#DAC9BC"/>
<stop offset="0.67" stop-color="#D9C9BC"/>
<stop offset="0.91" stop-color="#C8B09E"/>
<stop offset="1" stop-color="#C2A793"/>
</linearGradient>
<linearGradient id="paint9_linear_690_9797" x1="87.1737" y1="62.0304" x2="96.019" y2="62.0304" gradientUnits="userSpaceOnUse">
<stop stop-color="#B0B0B0"/>
<stop offset="0.09" stop-color="#C9C9C9"/>
<stop offset="0.78" stop-color="#EEEEEE"/>
<stop offset="0.89" stop-color="#D2D2D2"/>
<stop offset="0.92" stop-color="#C0BEBE"/>
<stop offset="1" stop-color="#ACACAC"/>
</linearGradient>
<radialGradient id="paint10_radial_690_9797" cx="0" cy="0" r="1" gradientUnits="userSpaceOnUse" gradientTransform="translate(83.9515 51.8536) rotate(90) scale(1.02296 3.52529)">
<stop stop-color="white"/>
<stop offset="0.14" stop-color="#EBEBEB"/>
<stop offset="0.47" stop-color="#E0DFDF"/>
<stop offset="0.84" stop-color="#C0C0C0"/>
<stop offset="0.94" stop-color="#C8C8C8"/>
<stop offset="1" stop-color="#ADADAD"/>
</radialGradient>
<radialGradient id="paint11_radial_690_9797" cx="0" cy="0" r="1" gradientUnits="userSpaceOnUse" gradientTransform="translate(83.9515 72.1473) rotate(90) scale(1.03163 3.52529)">
<stop stop-color="white"/>
<stop offset="0.14" stop-color="#EBEBEB"/>
<stop offset="0.47" stop-color="#E0DFDF"/>
<stop offset="0.84" stop-color="#C0C0C0"/>
<stop offset="0.94" stop-color="#C8C8C8"/>
<stop offset="1" stop-color="#ADADAD"/>
</radialGradient>
<linearGradient id="paint12_linear_690_9797" x1="86.6698" y1="96.6941" x2="73.6521" y2="96.6941" gradientUnits="userSpaceOnUse">
<stop stop-color="#C2A793"/>
<stop offset="0.09" stop-color="#C8B09E"/>
<stop offset="0.33" stop-color="#D9C9BC"/>
<stop offset="0.38" stop-color="#DAC9BC"/>
<stop offset="0.9" stop-color="#E4D2C4"/>
<stop offset="0.96" stop-color="#F7E4D5"/>
<stop offset="1" stop-color="#FFEBDB"/>
</linearGradient>
<linearGradient id="paint13_linear_690_9797" x1="87.0335" y1="96.684" x2="73.6994" y2="96.684" gradientUnits="userSpaceOnUse">
<stop stop-color="#929292"/>
<stop offset="0.1" stop-color="#D8D8D8"/>
<stop offset="0.78" stop-color="#E8E8E8"/>
<stop offset="0.89" stop-color="#DDDDDD"/>
<stop offset="0.92" stop-color="#E3E3E3"/>
<stop offset="1" stop-color="#A2A2A2"/>
</linearGradient>
<linearGradient id="paint14_linear_690_9797" x1="96.0934" y1="96.7119" x2="87.3576" y2="96.7119" gradientUnits="userSpaceOnUse">
<stop stop-color="#FFEBDB"/>
<stop offset="0.09" stop-color="#F7E4D5"/>
<stop offset="0.23" stop-color="#E4D2C4"/>
<stop offset="0.63" stop-color="#DAC9BC"/>
<stop offset="0.67" stop-color="#D9C9BC"/>
<stop offset="0.91" stop-color="#C8B09E"/>
<stop offset="1" stop-color="#C2A793"/>
</linearGradient>
<linearGradient id="paint15_linear_690_9797" x1="87.1737" y1="96.7081" x2="96.019" y2="96.7081" gradientUnits="userSpaceOnUse">
<stop stop-color="#B0B0B0"/>
<stop offset="0.09" stop-color="#C9C9C9"/>
<stop offset="0.78" stop-color="#EEEEEE"/>
<stop offset="0.89" stop-color="#D2D2D2"/>
<stop offset="0.92" stop-color="#C0BEBE"/>
<stop offset="1" stop-color="#ACACAC"/>
</linearGradient>
<radialGradient id="paint16_radial_690_9797" cx="0" cy="0" r="1" gradientUnits="userSpaceOnUse" gradientTransform="translate(83.9515 86.5314) rotate(90) scale(1.02296 3.52529)">
<stop stop-color="white"/>
<stop offset="0.14" stop-color="#EBEBEB"/>
<stop offset="0.47" stop-color="#E0DFDF"/>
<stop offset="0.84" stop-color="#C0C0C0"/>
<stop offset="0.94" stop-color="#C8C8C8"/>
<stop offset="1" stop-color="#ADADAD"/>
</radialGradient>
<radialGradient id="paint17_radial_690_9797" cx="0" cy="0" r="1" gradientUnits="userSpaceOnUse" gradientTransform="translate(83.9515 106.825) rotate(90) scale(1.03163 3.52529)">
<stop stop-color="white"/>
<stop offset="0.14" stop-color="#EBEBEB"/>
<stop offset="0.47" stop-color="#E0DFDF"/>
<stop offset="0.84" stop-color="#C0C0C0"/>
<stop offset="0.94" stop-color="#C8C8C8"/>
<stop offset="1" stop-color="#ADADAD"/>
</radialGradient>
<linearGradient id="paint18_linear_690_9797" x1="9.34189" y1="25.6062" x2="22.3597" y2="25.6062" gradientUnits="userSpaceOnUse">
<stop stop-color="#C2A793"/>
<stop offset="0.09" stop-color="#C8B09E"/>
<stop offset="0.33" stop-color="#D9C9BC"/>
<stop offset="0.38" stop-color="#DAC9BC"/>
<stop offset="0.9" stop-color="#E4D2C4"/>
<stop offset="0.96" stop-color="#F7E4D5"/>
<stop offset="1" stop-color="#FFEBDB"/>
</linearGradient>
<linearGradient id="paint19_linear_690_9797" x1="8.97822" y1="25.5961" x2="22.3123" y2="25.5961" gradientUnits="userSpaceOnUse">
<stop stop-color="#929292"/>
<stop offset="0.1" stop-color="#D8D8D8"/>
<stop offset="0.78" stop-color="#E8E8E8"/>
<stop offset="0.89" stop-color="#DDDDDD"/>
<stop offset="0.92" stop-color="#E3E3E3"/>
<stop offset="1" stop-color="#A2A2A2"/>
</linearGradient>
<linearGradient id="paint20_linear_690_9797" x1="-0.0816834" y1="25.624" x2="8.65414" y2="25.624" gradientUnits="userSpaceOnUse">
<stop stop-color="#FFEBDB"/>
<stop offset="0.09" stop-color="#F7E4D5"/>
<stop offset="0.23" stop-color="#E4D2C4"/>
<stop offset="0.63" stop-color="#DAC9BC"/>
<stop offset="0.67" stop-color="#D9C9BC"/>
<stop offset="0.91" stop-color="#C8B09E"/>
<stop offset="1" stop-color="#C2A793"/>
</linearGradient>
<linearGradient id="paint21_linear_690_9797" x1="8.83805" y1="25.6202" x2="-0.00728623" y2="25.6202" gradientUnits="userSpaceOnUse">
<stop stop-color="#B0B0B0"/>
<stop offset="0.09" stop-color="#C9C9C9"/>
<stop offset="0.78" stop-color="#EEEEEE"/>
<stop offset="0.89" stop-color="#D2D2D2"/>
<stop offset="0.92" stop-color="#C0BEBE"/>
<stop offset="1" stop-color="#ACACAC"/>
</linearGradient>
<radialGradient id="paint22_radial_690_9797" cx="0" cy="0" r="1" gradientUnits="userSpaceOnUse" gradientTransform="translate(12.0602 15.4435) rotate(90) scale(1.02296 3.52529)">
<stop stop-color="white"/>
<stop offset="0.14" stop-color="#EBEBEB"/>
<stop offset="0.47" stop-color="#E0DFDF"/>
<stop offset="0.84" stop-color="#C0C0C0"/>
<stop offset="0.94" stop-color="#C8C8C8"/>
<stop offset="1" stop-color="#ADADAD"/>
</radialGradient>
<radialGradient id="paint23_radial_690_9797" cx="0" cy="0" r="1" gradientUnits="userSpaceOnUse" gradientTransform="translate(12.0602 35.7371) rotate(90) scale(1.03163 3.52529)">
<stop stop-color="white"/>
<stop offset="0.14" stop-color="#EBEBEB"/>
<stop offset="0.47" stop-color="#E0DFDF"/>
<stop offset="0.84" stop-color="#C0C0C0"/>
<stop offset="0.94" stop-color="#C8C8C8"/>
<stop offset="1" stop-color="#ADADAD"/>
</radialGradient>
<linearGradient id="paint24_linear_690_9797" x1="9.34189" y1="62.0164" x2="22.3597" y2="62.0164" gradientUnits="userSpaceOnUse">
<stop stop-color="#C2A793"/>
<stop offset="0.09" stop-color="#C8B09E"/>
<stop offset="0.33" stop-color="#D9C9BC"/>
<stop offset="0.38" stop-color="#DAC9BC"/>
<stop offset="0.9" stop-color="#E4D2C4"/>
<stop offset="0.96" stop-color="#F7E4D5"/>
<stop offset="1" stop-color="#FFEBDB"/>
</linearGradient>
<linearGradient id="paint25_linear_690_9797" x1="8.97822" y1="62.0062" x2="22.3123" y2="62.0062" gradientUnits="userSpaceOnUse">
<stop stop-color="#929292"/>
<stop offset="0.1" stop-color="#D8D8D8"/>
<stop offset="0.78" stop-color="#E8E8E8"/>
<stop offset="0.89" stop-color="#DDDDDD"/>
<stop offset="0.92" stop-color="#E3E3E3"/>
<stop offset="1" stop-color="#A2A2A2"/>
</linearGradient>
<linearGradient id="paint26_linear_690_9797" x1="-0.0816834" y1="62.0342" x2="8.65414" y2="62.0342" gradientUnits="userSpaceOnUse">
<stop stop-color="#FFEBDB"/>
<stop offset="0.09" stop-color="#F7E4D5"/>
<stop offset="0.23" stop-color="#E4D2C4"/>
<stop offset="0.63" stop-color="#DAC9BC"/>
<stop offset="0.67" stop-color="#D9C9BC"/>
<stop offset="0.91" stop-color="#C8B09E"/>
<stop offset="1" stop-color="#C2A793"/>
</linearGradient>
<linearGradient id="paint27_linear_690_9797" x1="8.83805" y1="62.0304" x2="-0.00728623" y2="62.0304" gradientUnits="userSpaceOnUse">
<stop stop-color="#B0B0B0"/>
<stop offset="0.09" stop-color="#C9C9C9"/>
<stop offset="0.78" stop-color="#EEEEEE"/>
<stop offset="0.89" stop-color="#D2D2D2"/>
<stop offset="0.92" stop-color="#C0BEBE"/>
<stop offset="1" stop-color="#ACACAC"/>
</linearGradient>
<radialGradient id="paint28_radial_690_9797" cx="0" cy="0" r="1" gradientUnits="userSpaceOnUse" gradientTransform="translate(12.0602 51.8536) rotate(90) scale(1.02296 3.52529)">
<stop stop-color="white"/>
<stop offset="0.14" stop-color="#EBEBEB"/>
<stop offset="0.47" stop-color="#E0DFDF"/>
<stop offset="0.84" stop-color="#C0C0C0"/>
<stop offset="0.94" stop-color="#C8C8C8"/>
<stop offset="1" stop-color="#ADADAD"/>
</radialGradient>
<radialGradient id="paint29_radial_690_9797" cx="0" cy="0" r="1" gradientUnits="userSpaceOnUse" gradientTransform="translate(12.0602 72.1473) rotate(90) scale(1.03163 3.52529)">
<stop stop-color="white"/>
<stop offset="0.14" stop-color="#EBEBEB"/>
<stop offset="0.47" stop-color="#E0DFDF"/>
<stop offset="0.84" stop-color="#C0C0C0"/>
<stop offset="0.94" stop-color="#C8C8C8"/>
<stop offset="1" stop-color="#ADADAD"/>
</radialGradient>
<linearGradient id="paint30_linear_690_9797" x1="9.34189" y1="96.6902" x2="22.3597" y2="96.6902" gradientUnits="userSpaceOnUse">
<stop stop-color="#C2A793"/>
<stop offset="0.09" stop-color="#C8B09E"/>
<stop offset="0.33" stop-color="#D9C9BC"/>
<stop offset="0.38" stop-color="#DAC9BC"/>
<stop offset="0.9" stop-color="#E4D2C4"/>
<stop offset="0.96" stop-color="#F7E4D5"/>
<stop offset="1" stop-color="#FFEBDB"/>
</linearGradient>
<linearGradient id="paint31_linear_690_9797" x1="8.97822" y1="96.6801" x2="22.3123" y2="96.6801" gradientUnits="userSpaceOnUse">
<stop stop-color="#929292"/>
<stop offset="0.1" stop-color="#D8D8D8"/>
<stop offset="0.78" stop-color="#E8E8E8"/>
<stop offset="0.89" stop-color="#DDDDDD"/>
<stop offset="0.92" stop-color="#E3E3E3"/>
<stop offset="1" stop-color="#A2A2A2"/>
</linearGradient>
<linearGradient id="paint32_linear_690_9797" x1="-0.0816834" y1="96.708" x2="8.65414" y2="96.708" gradientUnits="userSpaceOnUse">
<stop stop-color="#FFEBDB"/>
<stop offset="0.09" stop-color="#F7E4D5"/>
<stop offset="0.23" stop-color="#E4D2C4"/>
<stop offset="0.63" stop-color="#DAC9BC"/>
<stop offset="0.67" stop-color="#D9C9BC"/>
<stop offset="0.91" stop-color="#C8B09E"/>
<stop offset="1" stop-color="#C2A793"/>
</linearGradient>
<linearGradient id="paint33_linear_690_9797" x1="8.83805" y1="96.7042" x2="-0.00728623" y2="96.7042" gradientUnits="userSpaceOnUse">
<stop stop-color="#B0B0B0"/>
<stop offset="0.09" stop-color="#C9C9C9"/>
<stop offset="0.78" stop-color="#EEEEEE"/>
<stop offset="0.89" stop-color="#D2D2D2"/>
<stop offset="0.92" stop-color="#C0BEBE"/>
<stop offset="1" stop-color="#ACACAC"/>
</linearGradient>
<radialGradient id="paint34_radial_690_9797" cx="0" cy="0" r="1" gradientUnits="userSpaceOnUse" gradientTransform="translate(12.0602 86.5275) rotate(90) scale(1.02296 3.52529)">
<stop stop-color="white"/>
<stop offset="0.14" stop-color="#EBEBEB"/>
<stop offset="0.47" stop-color="#E0DFDF"/>
<stop offset="0.84" stop-color="#C0C0C0"/>
<stop offset="0.94" stop-color="#C8C8C8"/>
<stop offset="1" stop-color="#ADADAD"/>
</radialGradient>
<radialGradient id="paint35_radial_690_9797" cx="0" cy="0" r="1" gradientUnits="userSpaceOnUse" gradientTransform="translate(12.0602 106.821) rotate(90) scale(1.03163 3.52529)">
<stop stop-color="white"/>
<stop offset="0.14" stop-color="#EBEBEB"/>
<stop offset="0.47" stop-color="#E0DFDF"/>
<stop offset="0.84" stop-color="#C0C0C0"/>
<stop offset="0.94" stop-color="#C8C8C8"/>
<stop offset="1" stop-color="#ADADAD"/>
</radialGradient>
<linearGradient id="paint36_linear_690_9797" x1="48.2198" y1="-1.24894" x2="48.2198" y2="121.09" gradientUnits="userSpaceOnUse">
<stop stop-color="white"/>
<stop offset="0.14" stop-color="#EBEBEB"/>
<stop offset="0.47" stop-color="#E0DFDF"/>
<stop offset="0.84" stop-color="#C0C0C0"/>
<stop offset="0.94" stop-color="#C8C8C8"/>
<stop offset="1" stop-color="#ADADAD"/>
</linearGradient>
<linearGradient id="paint37_linear_690_9797" x1="78.3823" y1="61.1519" x2="18.3493" y2="61.1519" gradientUnits="userSpaceOnUse">
<stop stop-color="#51ADEA"/>
<stop offset="0.01" stop-color="#55B8F1"/>
<stop offset="0.11" stop-color="#71C4F5"/>
<stop offset="0.24" stop-color="#60C0EF"/>
<stop offset="0.6" stop-color="#69CDF8"/>
<stop offset="0.81" stop-color="#8AD3FD"/>
<stop offset="0.89" stop-color="#89D7FC"/>
<stop offset="0.94" stop-color="#7ED4FF"/>
<stop offset="0.99" stop-color="#8BD1FA"/>
<stop offset="1" stop-color="#89D4EE"/>
</linearGradient>
</defs>
</svg>
