<svg width="114" height="144" viewBox="0 0 114 144" fill="none" xmlns="http://www.w3.org/2000/svg">
<path d="M103.206 40.8737V19.4043H88.025V40.8737H103.206Z" fill="url(#paint0_linear_1157_10547)"/>
<g style="mix-blend-mode:saturation">
<path d="M103.206 40.8737V19.4043H88.025V40.8737H103.206Z" fill="url(#paint1_linear_1157_10547)" style="mix-blend-mode:multiply"/>
</g>
<path d="M103.631 43.3023C104.724 34.5676 104.724 25.7309 103.631 16.9962C106.303 16.6492 108.995 16.3227 111.667 15.9758C112.153 15.9145 112.699 15.9758 113.104 16.1799C114.299 25.7105 114.299 34.5676 113.104 44.0983C112.659 44.3432 112.193 44.384 111.748 44.3431C109.036 43.9962 106.344 43.6493 103.631 43.3023Z" fill="url(#paint2_linear_1157_10547)"/>
<g style="mix-blend-mode:saturation">
<path d="M103.631 43.3023C104.724 34.5676 104.724 25.7309 103.631 16.9962C106.303 16.6492 108.995 16.3227 111.667 15.9758C112.153 15.9145 112.699 15.9758 113.104 16.1799C114.299 25.7105 114.299 34.5676 113.104 44.0983C112.659 44.3432 112.193 44.384 111.748 44.3431C109.036 43.9962 106.344 43.6493 103.631 43.3023Z" fill="url(#paint3_linear_1157_10547)" style="mix-blend-mode:multiply"/>
</g>
<path d="M103.631 16.9961H100.392L95.6151 19.4043H103.206H103.914L103.631 16.9961Z" fill="url(#paint4_radial_1157_10547)"/>
<path d="M103.631 43.3026H100.392L95.6151 40.874H103.206H103.914L103.631 43.3026Z" fill="url(#paint5_radial_1157_10547)"/>
<path d="M103.206 83.7311V62.2617H88.025V83.7311H103.206Z" fill="url(#paint6_linear_1157_10547)"/>
<g style="mix-blend-mode:saturation">
<path d="M103.206 83.7311V62.2617H88.025V83.7311H103.206Z" fill="url(#paint7_linear_1157_10547)" style="mix-blend-mode:multiply"/>
</g>
<path d="M103.631 86.1597C104.724 77.425 104.724 68.5883 103.631 59.8536C106.303 59.5067 108.995 59.1801 111.667 58.8332C112.153 58.772 112.699 58.8332 113.104 59.0373C114.299 68.5679 114.299 77.4251 113.104 86.9557C112.659 87.2006 112.193 87.2414 111.748 87.2006C109.036 86.8536 106.344 86.5067 103.631 86.1597Z" fill="url(#paint8_linear_1157_10547)"/>
<g style="mix-blend-mode:saturation">
<path d="M103.631 86.1597C104.724 77.425 104.724 68.5883 103.631 59.8536C106.303 59.5067 108.995 59.1801 111.667 58.8332C112.153 58.772 112.699 58.8332 113.104 59.0373C114.299 68.5679 114.299 77.4251 113.104 86.9557C112.659 87.2006 112.193 87.2414 111.748 87.2006C109.036 86.8536 106.344 86.5067 103.631 86.1597Z" fill="url(#paint9_linear_1157_10547)" style="mix-blend-mode:multiply"/>
</g>
<path d="M103.631 59.8535H100.392L95.6151 62.2617H103.206H103.914L103.631 59.8535Z" fill="url(#paint10_radial_1157_10547)"/>
<path d="M103.631 86.16H100.392L95.6151 83.7314H103.206H103.914L103.631 86.16Z" fill="url(#paint11_radial_1157_10547)"/>
<path d="M103.206 124.549V103.08H88.025V124.549H103.206Z" fill="url(#paint12_linear_1157_10547)"/>
<g style="mix-blend-mode:saturation">
<path d="M103.206 124.549V103.08H88.025V124.549H103.206Z" fill="url(#paint13_linear_1157_10547)" style="mix-blend-mode:multiply"/>
</g>
<path d="M103.631 126.978C104.724 118.243 104.724 109.407 103.631 100.672C106.303 100.325 108.995 99.9985 111.667 99.6516C112.153 99.5903 112.699 99.6516 113.104 99.8556C114.299 109.386 114.299 118.243 113.104 127.774C112.659 128.019 112.193 128.06 111.748 128.019C109.036 127.672 106.344 127.325 103.631 126.978Z" fill="url(#paint14_linear_1157_10547)"/>
<g style="mix-blend-mode:saturation">
<path d="M103.631 126.978C104.724 118.243 104.724 109.407 103.631 100.672C106.303 100.325 108.995 99.9985 111.667 99.6516C112.153 99.5903 112.699 99.6516 113.104 99.8556C114.299 109.386 114.299 118.243 113.104 127.774C112.659 128.019 112.193 128.06 111.748 128.019C109.036 127.672 106.344 127.325 103.631 126.978Z" fill="url(#paint15_linear_1157_10547)" style="mix-blend-mode:multiply"/>
</g>
<path d="M103.631 100.672H100.392L95.6151 103.08H103.206H103.914L103.631 100.672Z" fill="url(#paint16_radial_1157_10547)"/>
<path d="M103.631 126.978H100.392L95.6151 124.55H103.206H103.914L103.631 126.978Z" fill="url(#paint17_radial_1157_10547)"/>
<path d="M11.7822 40.8746V19.4053H26.9633V40.8746H11.7822Z" fill="url(#paint18_linear_1157_10547)"/>
<g style="mix-blend-mode:saturation">
<path d="M11.7822 40.8746V19.4053H26.9633V40.8746H11.7822Z" fill="url(#paint19_linear_1157_10547)" style="mix-blend-mode:multiply"/>
</g>
<path d="M11.3569 43.3033C10.2639 34.5686 10.2639 25.7319 11.3569 16.9972C8.68505 16.6502 5.99295 16.3237 3.32108 15.9767C2.83529 15.9155 2.28879 15.9768 1.88396 16.1808C0.689721 25.7115 0.689721 34.5686 1.88396 44.0992C2.32927 44.3441 2.79482 44.3849 3.24013 44.3441C5.95248 43.9972 8.64457 43.6502 11.3569 43.3033Z" fill="url(#paint20_linear_1157_10547)"/>
<g style="mix-blend-mode:saturation">
<path d="M11.3569 43.3033C10.2639 34.5686 10.2639 25.7319 11.3569 16.9972C8.68505 16.6502 5.99295 16.3237 3.32108 15.9767C2.83529 15.9155 2.28879 15.9768 1.88396 16.1808C0.689721 25.7115 0.689721 34.5686 1.88396 44.0992C2.32927 44.3441 2.79482 44.3849 3.24013 44.3441C5.95248 43.9972 8.64457 43.6502 11.3569 43.3033Z" fill="url(#paint21_linear_1157_10547)" style="mix-blend-mode:multiply"/>
</g>
<path d="M11.3576 16.9971H14.5962L19.3732 19.4053H11.7827H11.0742L11.3576 16.9971Z" fill="url(#paint22_radial_1157_10547)"/>
<path d="M11.3576 43.3036H14.5962L19.3732 40.875H11.7827H11.0742L11.3576 43.3036Z" fill="url(#paint23_radial_1157_10547)"/>
<path d="M11.7822 83.7321V62.2627H26.9633V83.7321H11.7822Z" fill="url(#paint24_linear_1157_10547)"/>
<g style="mix-blend-mode:saturation">
<path d="M11.7822 83.7321V62.2627H26.9633V83.7321H11.7822Z" fill="url(#paint25_linear_1157_10547)" style="mix-blend-mode:multiply"/>
</g>
<path d="M11.3569 86.1607C10.2639 77.426 10.2639 68.5893 11.3569 59.8546C8.68505 59.5076 5.99295 59.1811 3.32108 58.8342C2.83529 58.7729 2.28879 58.8342 1.88396 59.0383C0.689721 68.5689 0.689721 77.426 1.88396 86.9567C2.32927 87.2016 2.79482 87.2424 3.24013 87.2015C5.95248 86.8546 8.64457 86.5076 11.3569 86.1607Z" fill="url(#paint26_linear_1157_10547)"/>
<g style="mix-blend-mode:saturation">
<path d="M11.3569 86.1607C10.2639 77.426 10.2639 68.5893 11.3569 59.8546C8.68505 59.5076 5.99295 59.1811 3.32108 58.8342C2.83529 58.7729 2.28879 58.8342 1.88396 59.0383C0.689721 68.5689 0.689721 77.426 1.88396 86.9567C2.32927 87.2016 2.79482 87.2424 3.24013 87.2015C5.95248 86.8546 8.64457 86.5076 11.3569 86.1607Z" fill="url(#paint27_linear_1157_10547)" style="mix-blend-mode:multiply"/>
</g>
<path d="M11.3576 59.8545H14.5962L19.3732 62.2627H11.7827H11.0742L11.3576 59.8545Z" fill="url(#paint28_radial_1157_10547)"/>
<path d="M11.3576 86.161H14.5962L19.3732 83.7324H11.7827H11.0742L11.3576 86.161Z" fill="url(#paint29_radial_1157_10547)"/>
<path d="M11.7822 124.547V103.077H26.9633V124.547H11.7822Z" fill="url(#paint30_linear_1157_10547)"/>
<g style="mix-blend-mode:saturation">
<path d="M11.7822 124.547V103.077H26.9633V124.547H11.7822Z" fill="url(#paint31_linear_1157_10547)" style="mix-blend-mode:multiply"/>
</g>
<path d="M11.3569 126.975C10.2639 118.24 10.2639 109.404 11.3569 100.669C8.68505 100.322 5.99295 99.9956 3.32108 99.6486C2.83529 99.5874 2.28879 99.6486 1.88396 99.8527C0.689721 109.383 0.689721 118.24 1.88396 127.771C2.32927 128.016 2.79482 128.057 3.24013 128.016C5.95248 127.669 8.64457 127.322 11.3569 126.975Z" fill="url(#paint32_linear_1157_10547)"/>
<g style="mix-blend-mode:saturation">
<path d="M11.3569 126.975C10.2639 118.24 10.2639 109.404 11.3569 100.669C8.68505 100.322 5.99295 99.9956 3.32108 99.6486C2.83529 99.5874 2.28879 99.6486 1.88396 99.8527C0.689721 109.383 0.689721 118.24 1.88396 127.771C2.32927 128.016 2.79482 128.057 3.24013 128.016C5.95248 127.669 8.64457 127.322 11.3569 126.975Z" fill="url(#paint33_linear_1157_10547)" style="mix-blend-mode:multiply"/>
</g>
<path d="M11.3576 100.669H14.5962L19.3732 103.077H11.7827H11.0742L11.3576 100.669Z" fill="url(#paint34_radial_1157_10547)"/>
<path d="M11.3576 126.975H14.5962L19.3732 124.547H11.7827H11.0742L11.3576 126.975Z" fill="url(#paint35_radial_1157_10547)"/>
<path fill-rule="evenodd" clip-rule="evenodd" d="M22.2214 126.367V17.6122C22.2214 7.87753 30.0548 0 39.6897 0H75.1323C84.7874 0 92.6006 7.87753 92.6006 17.6122V126.388C92.6006 136.122 84.7672 144 75.1323 144H39.6897C30.0345 144 22.2214 136.122 22.2214 126.388V126.367Z" fill="url(#paint36_linear_1157_10547)"/>
<path style="mix-blend-mode:multiply" fill-rule="evenodd" clip-rule="evenodd" d="M22.2214 126.367V17.6122C22.2214 7.87753 30.0548 0 39.6897 0H75.1323C84.7874 0 92.6006 7.87753 92.6006 17.6122V126.388C92.6006 136.122 84.7672 144 75.1323 144H39.6897C30.0345 144 22.2214 136.122 22.2214 126.388V126.367Z" fill="url(#paint37_linear_1157_10547)"/>
<defs>
<linearGradient id="paint0_linear_1157_10547" x1="103.004" y1="30.139" x2="87.6809" y2="30.139" gradientUnits="userSpaceOnUse">
<stop stop-color="#C2A793"/>
<stop offset="0.09" stop-color="#C8B09E"/>
<stop offset="0.33" stop-color="#D9C9BC"/>
<stop offset="0.38" stop-color="#DAC9BC"/>
<stop offset="0.9" stop-color="#E4D2C4"/>
<stop offset="0.96" stop-color="#F7E4D5"/>
<stop offset="1" stop-color="#FFEBDB"/>
</linearGradient>
<linearGradient id="paint1_linear_1157_10547" x1="103.432" y1="30.127" x2="87.7367" y2="30.127" gradientUnits="userSpaceOnUse">
<stop stop-color="#929292"/>
<stop offset="0.1" stop-color="#D8D8D8"/>
<stop offset="0.78" stop-color="#E8E8E8"/>
<stop offset="0.89" stop-color="#DDDDDD"/>
<stop offset="0.92" stop-color="#E3E3E3"/>
<stop offset="1" stop-color="#A2A2A2"/>
</linearGradient>
<linearGradient id="paint2_linear_1157_10547" x1="114.096" y1="30.1595" x2="103.814" y2="30.1595" gradientUnits="userSpaceOnUse">
<stop stop-color="#FFEBDB"/>
<stop offset="0.09" stop-color="#F7E4D5"/>
<stop offset="0.23" stop-color="#E4D2C4"/>
<stop offset="0.63" stop-color="#DAC9BC"/>
<stop offset="0.67" stop-color="#D9C9BC"/>
<stop offset="0.91" stop-color="#C8B09E"/>
<stop offset="1" stop-color="#C2A793"/>
</linearGradient>
<linearGradient id="paint3_linear_1157_10547" x1="103.597" y1="30.155" x2="114.009" y2="30.155" gradientUnits="userSpaceOnUse">
<stop stop-color="#B0B0B0"/>
<stop offset="0.09" stop-color="#C9C9C9"/>
<stop offset="0.78" stop-color="#EEEEEE"/>
<stop offset="0.89" stop-color="#D2D2D2"/>
<stop offset="0.92" stop-color="#C0BEBE"/>
<stop offset="1" stop-color="#ACACAC"/>
</linearGradient>
<radialGradient id="paint4_radial_1157_10547" cx="0" cy="0" r="1" gradientUnits="userSpaceOnUse" gradientTransform="translate(99.804 18.1756) rotate(90) scale(1.20409 4.14949)">
<stop stop-color="white"/>
<stop offset="0.14" stop-color="#EBEBEB"/>
<stop offset="0.47" stop-color="#E0DFDF"/>
<stop offset="0.84" stop-color="#C0C0C0"/>
<stop offset="0.94" stop-color="#C8C8C8"/>
<stop offset="1" stop-color="#ADADAD"/>
</radialGradient>
<radialGradient id="paint5_radial_1157_10547" cx="0" cy="0" r="1" gradientUnits="userSpaceOnUse" gradientTransform="translate(99.804 42.0635) rotate(90) scale(1.21429 4.14949)">
<stop stop-color="white"/>
<stop offset="0.14" stop-color="#EBEBEB"/>
<stop offset="0.47" stop-color="#E0DFDF"/>
<stop offset="0.84" stop-color="#C0C0C0"/>
<stop offset="0.94" stop-color="#C8C8C8"/>
<stop offset="1" stop-color="#ADADAD"/>
</radialGradient>
<linearGradient id="paint6_linear_1157_10547" x1="103.004" y1="72.9964" x2="87.6809" y2="72.9964" gradientUnits="userSpaceOnUse">
<stop stop-color="#C2A793"/>
<stop offset="0.09" stop-color="#C8B09E"/>
<stop offset="0.33" stop-color="#D9C9BC"/>
<stop offset="0.38" stop-color="#DAC9BC"/>
<stop offset="0.9" stop-color="#E4D2C4"/>
<stop offset="0.96" stop-color="#F7E4D5"/>
<stop offset="1" stop-color="#FFEBDB"/>
</linearGradient>
<linearGradient id="paint7_linear_1157_10547" x1="103.432" y1="72.9845" x2="87.7367" y2="72.9845" gradientUnits="userSpaceOnUse">
<stop stop-color="#929292"/>
<stop offset="0.1" stop-color="#D8D8D8"/>
<stop offset="0.78" stop-color="#E8E8E8"/>
<stop offset="0.89" stop-color="#DDDDDD"/>
<stop offset="0.92" stop-color="#E3E3E3"/>
<stop offset="1" stop-color="#A2A2A2"/>
</linearGradient>
<linearGradient id="paint8_linear_1157_10547" x1="114.096" y1="73.0169" x2="103.814" y2="73.0169" gradientUnits="userSpaceOnUse">
<stop stop-color="#FFEBDB"/>
<stop offset="0.09" stop-color="#F7E4D5"/>
<stop offset="0.23" stop-color="#E4D2C4"/>
<stop offset="0.63" stop-color="#DAC9BC"/>
<stop offset="0.67" stop-color="#D9C9BC"/>
<stop offset="0.91" stop-color="#C8B09E"/>
<stop offset="1" stop-color="#C2A793"/>
</linearGradient>
<linearGradient id="paint9_linear_1157_10547" x1="103.597" y1="73.0125" x2="114.009" y2="73.0125" gradientUnits="userSpaceOnUse">
<stop stop-color="#B0B0B0"/>
<stop offset="0.09" stop-color="#C9C9C9"/>
<stop offset="0.78" stop-color="#EEEEEE"/>
<stop offset="0.89" stop-color="#D2D2D2"/>
<stop offset="0.92" stop-color="#C0BEBE"/>
<stop offset="1" stop-color="#ACACAC"/>
</linearGradient>
<radialGradient id="paint10_radial_1157_10547" cx="0" cy="0" r="1" gradientUnits="userSpaceOnUse" gradientTransform="translate(99.804 61.033) rotate(90) scale(1.20409 4.14949)">
<stop stop-color="white"/>
<stop offset="0.14" stop-color="#EBEBEB"/>
<stop offset="0.47" stop-color="#E0DFDF"/>
<stop offset="0.84" stop-color="#C0C0C0"/>
<stop offset="0.94" stop-color="#C8C8C8"/>
<stop offset="1" stop-color="#ADADAD"/>
</radialGradient>
<radialGradient id="paint11_radial_1157_10547" cx="0" cy="0" r="1" gradientUnits="userSpaceOnUse" gradientTransform="translate(99.804 84.9209) rotate(90) scale(1.21429 4.14949)">
<stop stop-color="white"/>
<stop offset="0.14" stop-color="#EBEBEB"/>
<stop offset="0.47" stop-color="#E0DFDF"/>
<stop offset="0.84" stop-color="#C0C0C0"/>
<stop offset="0.94" stop-color="#C8C8C8"/>
<stop offset="1" stop-color="#ADADAD"/>
</radialGradient>
<linearGradient id="paint12_linear_1157_10547" x1="103.004" y1="113.815" x2="87.6809" y2="113.815" gradientUnits="userSpaceOnUse">
<stop stop-color="#C2A793"/>
<stop offset="0.09" stop-color="#C8B09E"/>
<stop offset="0.33" stop-color="#D9C9BC"/>
<stop offset="0.38" stop-color="#DAC9BC"/>
<stop offset="0.9" stop-color="#E4D2C4"/>
<stop offset="0.96" stop-color="#F7E4D5"/>
<stop offset="1" stop-color="#FFEBDB"/>
</linearGradient>
<linearGradient id="paint13_linear_1157_10547" x1="103.432" y1="113.803" x2="87.7367" y2="113.803" gradientUnits="userSpaceOnUse">
<stop stop-color="#929292"/>
<stop offset="0.1" stop-color="#D8D8D8"/>
<stop offset="0.78" stop-color="#E8E8E8"/>
<stop offset="0.89" stop-color="#DDDDDD"/>
<stop offset="0.92" stop-color="#E3E3E3"/>
<stop offset="1" stop-color="#A2A2A2"/>
</linearGradient>
<linearGradient id="paint14_linear_1157_10547" x1="114.096" y1="113.835" x2="103.814" y2="113.835" gradientUnits="userSpaceOnUse">
<stop stop-color="#FFEBDB"/>
<stop offset="0.09" stop-color="#F7E4D5"/>
<stop offset="0.23" stop-color="#E4D2C4"/>
<stop offset="0.63" stop-color="#DAC9BC"/>
<stop offset="0.67" stop-color="#D9C9BC"/>
<stop offset="0.91" stop-color="#C8B09E"/>
<stop offset="1" stop-color="#C2A793"/>
</linearGradient>
<linearGradient id="paint15_linear_1157_10547" x1="103.597" y1="113.831" x2="114.009" y2="113.831" gradientUnits="userSpaceOnUse">
<stop stop-color="#B0B0B0"/>
<stop offset="0.09" stop-color="#C9C9C9"/>
<stop offset="0.78" stop-color="#EEEEEE"/>
<stop offset="0.89" stop-color="#D2D2D2"/>
<stop offset="0.92" stop-color="#C0BEBE"/>
<stop offset="1" stop-color="#ACACAC"/>
</linearGradient>
<radialGradient id="paint16_radial_1157_10547" cx="0" cy="0" r="1" gradientUnits="userSpaceOnUse" gradientTransform="translate(99.804 101.851) rotate(90) scale(1.20409 4.14949)">
<stop stop-color="white"/>
<stop offset="0.14" stop-color="#EBEBEB"/>
<stop offset="0.47" stop-color="#E0DFDF"/>
<stop offset="0.84" stop-color="#C0C0C0"/>
<stop offset="0.94" stop-color="#C8C8C8"/>
<stop offset="1" stop-color="#ADADAD"/>
</radialGradient>
<radialGradient id="paint17_radial_1157_10547" cx="0" cy="0" r="1" gradientUnits="userSpaceOnUse" gradientTransform="translate(99.804 125.739) rotate(90) scale(1.21429 4.14949)">
<stop stop-color="white"/>
<stop offset="0.14" stop-color="#EBEBEB"/>
<stop offset="0.47" stop-color="#E0DFDF"/>
<stop offset="0.84" stop-color="#C0C0C0"/>
<stop offset="0.94" stop-color="#C8C8C8"/>
<stop offset="1" stop-color="#ADADAD"/>
</radialGradient>
<linearGradient id="paint18_linear_1157_10547" x1="11.9846" y1="30.14" x2="27.3074" y2="30.14" gradientUnits="userSpaceOnUse">
<stop stop-color="#C2A793"/>
<stop offset="0.09" stop-color="#C8B09E"/>
<stop offset="0.33" stop-color="#D9C9BC"/>
<stop offset="0.38" stop-color="#DAC9BC"/>
<stop offset="0.9" stop-color="#E4D2C4"/>
<stop offset="0.96" stop-color="#F7E4D5"/>
<stop offset="1" stop-color="#FFEBDB"/>
</linearGradient>
<linearGradient id="paint19_linear_1157_10547" x1="11.5566" y1="30.128" x2="27.2516" y2="30.128" gradientUnits="userSpaceOnUse">
<stop stop-color="#929292"/>
<stop offset="0.1" stop-color="#D8D8D8"/>
<stop offset="0.78" stop-color="#E8E8E8"/>
<stop offset="0.89" stop-color="#DDDDDD"/>
<stop offset="0.92" stop-color="#E3E3E3"/>
<stop offset="1" stop-color="#A2A2A2"/>
</linearGradient>
<linearGradient id="paint20_linear_1157_10547" x1="0.892135" y1="30.1604" x2="11.1747" y2="30.1604" gradientUnits="userSpaceOnUse">
<stop stop-color="#FFEBDB"/>
<stop offset="0.09" stop-color="#F7E4D5"/>
<stop offset="0.23" stop-color="#E4D2C4"/>
<stop offset="0.63" stop-color="#DAC9BC"/>
<stop offset="0.67" stop-color="#D9C9BC"/>
<stop offset="0.91" stop-color="#C8B09E"/>
<stop offset="1" stop-color="#C2A793"/>
</linearGradient>
<linearGradient id="paint21_linear_1157_10547" x1="11.3912" y1="30.156" x2="0.979705" y2="30.156" gradientUnits="userSpaceOnUse">
<stop stop-color="#B0B0B0"/>
<stop offset="0.09" stop-color="#C9C9C9"/>
<stop offset="0.78" stop-color="#EEEEEE"/>
<stop offset="0.89" stop-color="#D2D2D2"/>
<stop offset="0.92" stop-color="#C0BEBE"/>
<stop offset="1" stop-color="#ACACAC"/>
</linearGradient>
<radialGradient id="paint22_radial_1157_10547" cx="0" cy="0" r="1" gradientUnits="userSpaceOnUse" gradientTransform="translate(15.1843 18.1766) rotate(90) scale(1.20409 4.14949)">
<stop stop-color="white"/>
<stop offset="0.14" stop-color="#EBEBEB"/>
<stop offset="0.47" stop-color="#E0DFDF"/>
<stop offset="0.84" stop-color="#C0C0C0"/>
<stop offset="0.94" stop-color="#C8C8C8"/>
<stop offset="1" stop-color="#ADADAD"/>
</radialGradient>
<radialGradient id="paint23_radial_1157_10547" cx="0" cy="0" r="1" gradientUnits="userSpaceOnUse" gradientTransform="translate(15.1843 42.0645) rotate(90) scale(1.21429 4.14949)">
<stop stop-color="white"/>
<stop offset="0.14" stop-color="#EBEBEB"/>
<stop offset="0.47" stop-color="#E0DFDF"/>
<stop offset="0.84" stop-color="#C0C0C0"/>
<stop offset="0.94" stop-color="#C8C8C8"/>
<stop offset="1" stop-color="#ADADAD"/>
</radialGradient>
<linearGradient id="paint24_linear_1157_10547" x1="11.9846" y1="72.9974" x2="27.3074" y2="72.9974" gradientUnits="userSpaceOnUse">
<stop stop-color="#C2A793"/>
<stop offset="0.09" stop-color="#C8B09E"/>
<stop offset="0.33" stop-color="#D9C9BC"/>
<stop offset="0.38" stop-color="#DAC9BC"/>
<stop offset="0.9" stop-color="#E4D2C4"/>
<stop offset="0.96" stop-color="#F7E4D5"/>
<stop offset="1" stop-color="#FFEBDB"/>
</linearGradient>
<linearGradient id="paint25_linear_1157_10547" x1="11.5566" y1="72.9854" x2="27.2516" y2="72.9854" gradientUnits="userSpaceOnUse">
<stop stop-color="#929292"/>
<stop offset="0.1" stop-color="#D8D8D8"/>
<stop offset="0.78" stop-color="#E8E8E8"/>
<stop offset="0.89" stop-color="#DDDDDD"/>
<stop offset="0.92" stop-color="#E3E3E3"/>
<stop offset="1" stop-color="#A2A2A2"/>
</linearGradient>
<linearGradient id="paint26_linear_1157_10547" x1="0.892135" y1="73.0179" x2="11.1747" y2="73.0179" gradientUnits="userSpaceOnUse">
<stop stop-color="#FFEBDB"/>
<stop offset="0.09" stop-color="#F7E4D5"/>
<stop offset="0.23" stop-color="#E4D2C4"/>
<stop offset="0.63" stop-color="#DAC9BC"/>
<stop offset="0.67" stop-color="#D9C9BC"/>
<stop offset="0.91" stop-color="#C8B09E"/>
<stop offset="1" stop-color="#C2A793"/>
</linearGradient>
<linearGradient id="paint27_linear_1157_10547" x1="11.3912" y1="73.0134" x2="0.979705" y2="73.0134" gradientUnits="userSpaceOnUse">
<stop stop-color="#B0B0B0"/>
<stop offset="0.09" stop-color="#C9C9C9"/>
<stop offset="0.78" stop-color="#EEEEEE"/>
<stop offset="0.89" stop-color="#D2D2D2"/>
<stop offset="0.92" stop-color="#C0BEBE"/>
<stop offset="1" stop-color="#ACACAC"/>
</linearGradient>
<radialGradient id="paint28_radial_1157_10547" cx="0" cy="0" r="1" gradientUnits="userSpaceOnUse" gradientTransform="translate(15.1843 61.034) rotate(90) scale(1.20409 4.14949)">
<stop stop-color="white"/>
<stop offset="0.14" stop-color="#EBEBEB"/>
<stop offset="0.47" stop-color="#E0DFDF"/>
<stop offset="0.84" stop-color="#C0C0C0"/>
<stop offset="0.94" stop-color="#C8C8C8"/>
<stop offset="1" stop-color="#ADADAD"/>
</radialGradient>
<radialGradient id="paint29_radial_1157_10547" cx="0" cy="0" r="1" gradientUnits="userSpaceOnUse" gradientTransform="translate(15.1843 84.9219) rotate(90) scale(1.21429 4.14949)">
<stop stop-color="white"/>
<stop offset="0.14" stop-color="#EBEBEB"/>
<stop offset="0.47" stop-color="#E0DFDF"/>
<stop offset="0.84" stop-color="#C0C0C0"/>
<stop offset="0.94" stop-color="#C8C8C8"/>
<stop offset="1" stop-color="#ADADAD"/>
</radialGradient>
<linearGradient id="paint30_linear_1157_10547" x1="11.9846" y1="113.812" x2="27.3074" y2="113.812" gradientUnits="userSpaceOnUse">
<stop stop-color="#C2A793"/>
<stop offset="0.09" stop-color="#C8B09E"/>
<stop offset="0.33" stop-color="#D9C9BC"/>
<stop offset="0.38" stop-color="#DAC9BC"/>
<stop offset="0.9" stop-color="#E4D2C4"/>
<stop offset="0.96" stop-color="#F7E4D5"/>
<stop offset="1" stop-color="#FFEBDB"/>
</linearGradient>
<linearGradient id="paint31_linear_1157_10547" x1="11.5566" y1="113.8" x2="27.2516" y2="113.8" gradientUnits="userSpaceOnUse">
<stop stop-color="#929292"/>
<stop offset="0.1" stop-color="#D8D8D8"/>
<stop offset="0.78" stop-color="#E8E8E8"/>
<stop offset="0.89" stop-color="#DDDDDD"/>
<stop offset="0.92" stop-color="#E3E3E3"/>
<stop offset="1" stop-color="#A2A2A2"/>
</linearGradient>
<linearGradient id="paint32_linear_1157_10547" x1="0.892135" y1="113.832" x2="11.1747" y2="113.832" gradientUnits="userSpaceOnUse">
<stop stop-color="#FFEBDB"/>
<stop offset="0.09" stop-color="#F7E4D5"/>
<stop offset="0.23" stop-color="#E4D2C4"/>
<stop offset="0.63" stop-color="#DAC9BC"/>
<stop offset="0.67" stop-color="#D9C9BC"/>
<stop offset="0.91" stop-color="#C8B09E"/>
<stop offset="1" stop-color="#C2A793"/>
</linearGradient>
<linearGradient id="paint33_linear_1157_10547" x1="11.3912" y1="113.828" x2="0.979705" y2="113.828" gradientUnits="userSpaceOnUse">
<stop stop-color="#B0B0B0"/>
<stop offset="0.09" stop-color="#C9C9C9"/>
<stop offset="0.78" stop-color="#EEEEEE"/>
<stop offset="0.89" stop-color="#D2D2D2"/>
<stop offset="0.92" stop-color="#C0BEBE"/>
<stop offset="1" stop-color="#ACACAC"/>
</linearGradient>
<radialGradient id="paint34_radial_1157_10547" cx="0" cy="0" r="1" gradientUnits="userSpaceOnUse" gradientTransform="translate(15.1843 101.848) rotate(90) scale(1.20409 4.14949)">
<stop stop-color="white"/>
<stop offset="0.14" stop-color="#EBEBEB"/>
<stop offset="0.47" stop-color="#E0DFDF"/>
<stop offset="0.84" stop-color="#C0C0C0"/>
<stop offset="0.94" stop-color="#C8C8C8"/>
<stop offset="1" stop-color="#ADADAD"/>
</radialGradient>
<radialGradient id="paint35_radial_1157_10547" cx="0" cy="0" r="1" gradientUnits="userSpaceOnUse" gradientTransform="translate(15.1843 125.736) rotate(90) scale(1.21429 4.14949)">
<stop stop-color="white"/>
<stop offset="0.14" stop-color="#EBEBEB"/>
<stop offset="0.47" stop-color="#E0DFDF"/>
<stop offset="0.84" stop-color="#C0C0C0"/>
<stop offset="0.94" stop-color="#C8C8C8"/>
<stop offset="1" stop-color="#ADADAD"/>
</radialGradient>
<linearGradient id="paint36_linear_1157_10547" x1="57.7452" y1="-1.47009" x2="57.7452" y2="142.53" gradientUnits="userSpaceOnUse">
<stop stop-color="white"/>
<stop offset="0.14" stop-color="#EBEBEB"/>
<stop offset="0.47" stop-color="#E0DFDF"/>
<stop offset="0.84" stop-color="#C0C0C0"/>
<stop offset="0.94" stop-color="#C8C8C8"/>
<stop offset="1" stop-color="#ADADAD"/>
</linearGradient>
<linearGradient id="paint37_linear_1157_10547" x1="93.2483" y1="71.9796" x2="22.5857" y2="71.9796" gradientUnits="userSpaceOnUse">
<stop stop-color="#E8E8E8"/>
<stop offset="0.01" stop-color="#EAEAEA"/>
<stop offset="0.11" stop-color="#F6F6F6"/>
<stop offset="0.24" stop-color="#FDFDFD"/>
<stop offset="0.6" stop-color="white"/>
<stop offset="0.81" stop-color="#FDFDFD"/>
<stop offset="0.89" stop-color="#F6F6F6"/>
<stop offset="0.94" stop-color="#EAEAEA"/>
<stop offset="0.99" stop-color="#D9D9D9"/>
<stop offset="1" stop-color="#D4D4D4"/>
</linearGradient>
</defs>
</svg>
