<svg width="83" height="86" viewBox="0 0 83 86" fill="none" xmlns="http://www.w3.org/2000/svg">
<g filter="url(#filter0_d_1157_10792)">
<path fill-rule="evenodd" clip-rule="evenodd" d="M47.3949 7.97013L48.0476 1.58269C48.0191 0.708489 47.3081 0.0250808 46.4597 0.0564075L35.6711 0.454765C34.8227 0.486092 34.1579 1.2203 34.1864 2.0945L35.2534 8.41845L47.4179 7.96929L47.3949 7.97013Z" fill="url(#paint0_linear_1157_10792)"/>
<path fill-rule="evenodd" clip-rule="evenodd" d="M47.3949 7.97013L48.0476 1.58269C48.0191 0.708489 47.3081 0.0250808 46.4597 0.0564075L35.6711 0.454765C34.8227 0.486092 34.1579 1.2203 34.1864 2.0945L35.2534 8.41845L47.4179 7.96929L47.3949 7.97013Z" fill="url(#paint1_linear_1157_10792)" style="mix-blend-mode:multiply"/>
<path fill-rule="evenodd" clip-rule="evenodd" d="M36.2724 19.0352L47.0632 18.6366C47.9118 18.6053 48.5767 17.8707 48.5482 16.9961L47.3935 7.98634L35.2267 8.43571L34.6613 17.509C34.6898 18.3836 35.4009 19.0674 36.2495 19.036L36.2724 19.0352Z" fill="url(#paint2_linear_1157_10792)"/>
<path fill-rule="evenodd" clip-rule="evenodd" d="M36.2724 19.0352L47.0632 18.6366C47.9118 18.6053 48.5767 17.8707 48.5482 16.9961L47.3935 7.98634L35.2267 8.43571L34.6613 17.509C34.6898 18.3836 35.4009 19.0674 36.2495 19.036L36.2724 19.0352Z" fill="url(#paint3_linear_1157_10792)" style="mix-blend-mode:multiply"/>
<path fill-rule="evenodd" clip-rule="evenodd" d="M35.5273 69.4373L34.3955 75.745C34.3581 76.6183 35.0154 77.3598 35.8636 77.4009L46.6495 77.9238C47.4977 77.9649 48.2158 77.2901 48.2532 76.4168L47.6657 70.0257L35.5044 69.4362L35.5273 69.4373Z" fill="url(#paint4_linear_1157_10792)"/>
<path fill-rule="evenodd" clip-rule="evenodd" d="M35.5273 69.4373L34.3955 75.745C34.3581 76.6183 35.0154 77.3598 35.8636 77.4009L46.6495 77.9238C47.4977 77.9649 48.2158 77.2901 48.2532 76.4168L47.6657 70.0257L35.5044 69.4362L35.5273 69.4373Z" fill="url(#paint5_linear_1157_10792)" style="mix-blend-mode:multiply"/>
<path fill-rule="evenodd" clip-rule="evenodd" d="M47.47 59.357L36.6814 58.8338C35.833 58.7927 35.1147 59.4678 35.0773 60.3417L35.5501 69.4171L47.7145 70.007L48.9615 61.015C48.9989 60.1411 48.3414 59.3993 47.493 59.3581L47.47 59.357Z" fill="url(#paint6_linear_1157_10792)"/>
<path fill-rule="evenodd" clip-rule="evenodd" d="M47.47 59.357L36.6814 58.8338C35.833 58.7927 35.1147 59.4678 35.0773 60.3417L35.5501 69.4171L47.7145 70.007L48.9615 61.015C48.9989 60.1411 48.3414 59.3993 47.493 59.3581L47.47 59.357Z" fill="url(#paint7_linear_1157_10792)" style="mix-blend-mode:multiply"/>
<path fill-rule="evenodd" clip-rule="evenodd" d="M14.3076 44.7372L20.4758 45.6255C21.3242 45.6255 22.0121 44.9148 22.0121 44.0384V32.8937C22.0121 32.0173 21.3242 31.3066 20.4758 31.3066L14.3076 32.1949V44.7609V44.7372Z" fill="url(#paint8_linear_1157_10792)"/>
<path fill-rule="evenodd" clip-rule="evenodd" d="M14.3076 44.7372L20.4758 45.6255C21.3242 45.6255 22.0121 44.9148 22.0121 44.0384V32.8937C22.0121 32.0173 21.3242 31.3066 20.4758 31.3066L14.3076 32.1949V44.7609V44.7372Z" fill="url(#paint9_linear_1157_10792)" style="mix-blend-mode:multiply"/>
<path fill-rule="evenodd" clip-rule="evenodd" d="M4 32.8812V44.026C4 44.9024 4.6879 45.613 5.53631 45.613L14.3071 44.7247V32.1588L5.53631 31.2705C4.6879 31.2705 4 31.9811 4 32.8575V32.8812Z" fill="url(#paint10_linear_1157_10792)"/>
<path fill-rule="evenodd" clip-rule="evenodd" d="M4 32.8812V44.026C4 44.9024 4.6879 45.613 5.53631 45.613L14.3071 44.7247V32.1588L5.53631 31.2705C4.6879 31.2705 4 31.9811 4 32.8575V32.8812Z" fill="url(#paint11_linear_1157_10792)" style="mix-blend-mode:multiply"/>
<path fill-rule="evenodd" clip-rule="evenodd" d="M71.2959 45.078L77.4641 45.9663C78.3125 45.9663 79.0004 45.2557 79.0004 44.3792V33.2345C79.0004 32.3581 78.3125 31.6475 77.4641 31.6475L71.2959 32.5357V45.1017V45.078Z" fill="url(#paint12_linear_1157_10792)"/>
<path fill-rule="evenodd" clip-rule="evenodd" d="M71.2959 45.078L77.4641 45.9663C78.3125 45.9663 79.0004 45.2557 79.0004 44.3792V33.2345C79.0004 32.3581 78.3125 31.6475 77.4641 31.6475L71.2959 32.5357V45.1017V45.078Z" fill="url(#paint13_linear_1157_10792)" style="mix-blend-mode:multiply"/>
<path fill-rule="evenodd" clip-rule="evenodd" d="M60.9883 33.222V44.3668C60.9883 45.2432 61.6762 45.9538 62.5246 45.9538L71.2953 45.0656V32.4996L62.5246 31.6113C61.6762 31.6113 60.9883 32.3219 60.9883 33.1984V33.222Z" fill="url(#paint14_linear_1157_10792)"/>
<path fill-rule="evenodd" clip-rule="evenodd" d="M60.9883 33.222V44.3668C60.9883 45.2432 61.6762 45.9538 62.5246 45.9538L71.2953 45.0656V32.4996L62.5246 31.6113C61.6762 31.6113 60.9883 32.3219 60.9883 33.1984V33.222Z" fill="url(#paint15_linear_1157_10792)" style="mix-blend-mode:multiply"/>
<path d="M65.6315 38.8008C65.6315 52.5749 54.82 63.7433 41.4862 63.7433C28.1523 63.7433 17.3408 52.5749 17.3408 38.8008C17.3408 25.0268 28.1523 13.8584 41.4862 13.8584C54.82 13.8584 65.6315 25.0268 65.6315 38.8008Z" fill="url(#paint16_radial_1157_10792)"/>
</g>
<defs>
<filter id="filter0_d_1157_10792" x="0" y="0" width="83" height="86" filterUnits="userSpaceOnUse" color-interpolation-filters="sRGB">
<feFlood flood-opacity="0" result="BackgroundImageFix"/>
<feColorMatrix in="SourceAlpha" type="matrix" values="0 0 0 0 0 0 0 0 0 0 0 0 0 0 0 0 0 0 127 0" result="hardAlpha"/>
<feOffset dy="4"/>
<feGaussianBlur stdDeviation="2"/>
<feComposite in2="hardAlpha" operator="out"/>
<feColorMatrix type="matrix" values="0 0 0 0 0 0 0 0 0 0 0 0 0 0 0 0 0 0 0.25 0"/>
<feBlend mode="normal" in2="BackgroundImageFix" result="effect1_dropShadow_1157_10792"/>
<feBlend mode="normal" in="SourceGraphic" in2="effect1_dropShadow_1157_10792" result="shape"/>
</filter>
<linearGradient id="paint0_linear_1157_10792" x1="41.0682" y1="0.515695" x2="41.3468" y2="8.06335" gradientUnits="userSpaceOnUse">
<stop stop-color="#F5E2D3"/>
<stop offset="0.05" stop-color="#F2DFD0"/>
<stop offset="0.09" stop-color="#EAD7C9"/>
<stop offset="0.1" stop-color="#E5D3C5"/>
<stop offset="0.57" stop-color="#E2D0C2"/>
<stop offset="0.88" stop-color="#D9C9BC"/>
<stop offset="0.89" stop-color="#D9C9BC"/>
<stop offset="0.97" stop-color="#C8B09E"/>
<stop offset="1" stop-color="#C2A793"/>
</linearGradient>
<linearGradient id="paint1_linear_1157_10792" x1="48.1713" y1="3.96734" x2="34.2507" y2="4.42108" gradientUnits="userSpaceOnUse">
<stop stop-color="#B0B0B0"/>
<stop offset="0.09" stop-color="#C9C9C9"/>
<stop offset="0.78" stop-color="#EEEEEE"/>
<stop offset="0.89" stop-color="#D2D2D2"/>
<stop offset="0.92" stop-color="#C0BEBE"/>
<stop offset="1" stop-color="#ACACAC"/>
</linearGradient>
<linearGradient id="paint2_linear_1157_10792" x1="41.3169" y1="7.89128" x2="41.732" y2="19.1294" gradientUnits="userSpaceOnUse">
<stop stop-color="#A89180"/>
<stop offset="0.14" stop-color="#CCBAAC"/>
<stop offset="0.24" stop-color="#D4C3B6"/>
<stop offset="0.34" stop-color="#D9C9BC"/>
<stop offset="0.37" stop-color="#DACABC"/>
<stop offset="0.6" stop-color="#E2D0C3"/>
<stop offset="1" stop-color="#E5D3C5"/>
</linearGradient>
<linearGradient id="paint3_linear_1157_10792" x1="34.3335" y1="13.7937" x2="48.6927" y2="13.3257" gradientUnits="userSpaceOnUse">
<stop stop-color="#929292"/>
<stop offset="0.1" stop-color="#D8D8D8"/>
<stop offset="0.78" stop-color="#E8E8E8"/>
<stop offset="0.89" stop-color="#DDDDDD"/>
<stop offset="0.92" stop-color="#E3E3E3"/>
<stop offset="1" stop-color="#A2A2A2"/>
</linearGradient>
<linearGradient id="paint4_linear_1157_10792" x1="41.2734" y1="77.403" x2="41.6389" y2="69.8636" gradientUnits="userSpaceOnUse">
<stop stop-color="#F5E2D3"/>
<stop offset="0.05" stop-color="#F2DFD0"/>
<stop offset="0.09" stop-color="#EAD7C9"/>
<stop offset="0.1" stop-color="#E5D3C5"/>
<stop offset="0.57" stop-color="#E2D0C2"/>
<stop offset="0.88" stop-color="#D9C9BC"/>
<stop offset="0.89" stop-color="#D9C9BC"/>
<stop offset="0.97" stop-color="#C8B09E"/>
<stop offset="1" stop-color="#C2A793"/>
</linearGradient>
<linearGradient id="paint5_linear_1157_10792" x1="34.4518" y1="73.3588" x2="48.3702" y2="73.9554" gradientUnits="userSpaceOnUse">
<stop stop-color="#B0B0B0"/>
<stop offset="0.09" stop-color="#C9C9C9"/>
<stop offset="0.78" stop-color="#EEEEEE"/>
<stop offset="0.89" stop-color="#D2D2D2"/>
<stop offset="0.92" stop-color="#C0BEBE"/>
<stop offset="1" stop-color="#ACACAC"/>
</linearGradient>
<linearGradient id="paint6_linear_1157_10792" x1="41.6014" y1="70.0301" x2="42.1459" y2="58.803" gradientUnits="userSpaceOnUse">
<stop stop-color="#A89180"/>
<stop offset="0.14" stop-color="#CCBAAC"/>
<stop offset="0.24" stop-color="#D4C3B6"/>
<stop offset="0.34" stop-color="#D9C9BC"/>
<stop offset="0.37" stop-color="#DACABC"/>
<stop offset="0.6" stop-color="#E2D0C3"/>
<stop offset="1" stop-color="#E5D3C5"/>
</linearGradient>
<linearGradient id="paint7_linear_1157_10792" x1="49.0085" y1="64.7448" x2="34.6507" y2="64.1296" gradientUnits="userSpaceOnUse">
<stop stop-color="#929292"/>
<stop offset="0.1" stop-color="#D8D8D8"/>
<stop offset="0.78" stop-color="#E8E8E8"/>
<stop offset="0.89" stop-color="#DDDDDD"/>
<stop offset="0.92" stop-color="#E3E3E3"/>
<stop offset="1" stop-color="#A2A2A2"/>
</linearGradient>
<linearGradient id="paint8_linear_1157_10792" x1="21.7599" y1="38.4601" x2="14.4337" y2="38.4601" gradientUnits="userSpaceOnUse">
<stop stop-color="#F5E2D3"/>
<stop offset="0.05" stop-color="#F2DFD0"/>
<stop offset="0.09" stop-color="#EAD7C9"/>
<stop offset="0.1" stop-color="#E5D3C5"/>
<stop offset="0.57" stop-color="#E2D0C2"/>
<stop offset="0.88" stop-color="#D9C9BC"/>
<stop offset="0.89" stop-color="#D9C9BC"/>
<stop offset="0.97" stop-color="#C8B09E"/>
<stop offset="1" stop-color="#C2A793"/>
</linearGradient>
<linearGradient id="paint9_linear_1157_10792" x1="18.1599" y1="45.6728" x2="18.1599" y2="31.2948" gradientUnits="userSpaceOnUse">
<stop stop-color="#B0B0B0"/>
<stop offset="0.09" stop-color="#C9C9C9"/>
<stop offset="0.78" stop-color="#EEEEEE"/>
<stop offset="0.89" stop-color="#D2D2D2"/>
<stop offset="0.92" stop-color="#C0BEBE"/>
<stop offset="1" stop-color="#ACACAC"/>
</linearGradient>
<linearGradient id="paint10_linear_1157_10792" x1="14.6166" y1="38.4595" x2="3.71337" y2="38.4595" gradientUnits="userSpaceOnUse">
<stop stop-color="#A89180"/>
<stop offset="0.14" stop-color="#CCBAAC"/>
<stop offset="0.24" stop-color="#D4C3B6"/>
<stop offset="0.34" stop-color="#D9C9BC"/>
<stop offset="0.37" stop-color="#DACABC"/>
<stop offset="0.6" stop-color="#E2D0C3"/>
<stop offset="1" stop-color="#E5D3C5"/>
</linearGradient>
<linearGradient id="paint11_linear_1157_10792" x1="9.1478" y1="31.0573" x2="9.1478" y2="45.8854" gradientUnits="userSpaceOnUse">
<stop stop-color="#929292"/>
<stop offset="0.1" stop-color="#D8D8D8"/>
<stop offset="0.78" stop-color="#E8E8E8"/>
<stop offset="0.89" stop-color="#DDDDDD"/>
<stop offset="0.92" stop-color="#E3E3E3"/>
<stop offset="1" stop-color="#A2A2A2"/>
</linearGradient>
<linearGradient id="paint12_linear_1157_10792" x1="78.7482" y1="38.8009" x2="71.422" y2="38.8009" gradientUnits="userSpaceOnUse">
<stop stop-color="#F5E2D3"/>
<stop offset="0.05" stop-color="#F2DFD0"/>
<stop offset="0.09" stop-color="#EAD7C9"/>
<stop offset="0.1" stop-color="#E5D3C5"/>
<stop offset="0.57" stop-color="#E2D0C2"/>
<stop offset="0.88" stop-color="#D9C9BC"/>
<stop offset="0.89" stop-color="#D9C9BC"/>
<stop offset="0.97" stop-color="#C8B09E"/>
<stop offset="1" stop-color="#C2A793"/>
</linearGradient>
<linearGradient id="paint13_linear_1157_10792" x1="75.1481" y1="46.0137" x2="75.1481" y2="31.6356" gradientUnits="userSpaceOnUse">
<stop stop-color="#B0B0B0"/>
<stop offset="0.09" stop-color="#C9C9C9"/>
<stop offset="0.78" stop-color="#EEEEEE"/>
<stop offset="0.89" stop-color="#D2D2D2"/>
<stop offset="0.92" stop-color="#C0BEBE"/>
<stop offset="1" stop-color="#ACACAC"/>
</linearGradient>
<linearGradient id="paint14_linear_1157_10792" x1="71.6049" y1="38.8003" x2="60.7017" y2="38.8003" gradientUnits="userSpaceOnUse">
<stop stop-color="#A89180"/>
<stop offset="0.14" stop-color="#CCBAAC"/>
<stop offset="0.24" stop-color="#D4C3B6"/>
<stop offset="0.34" stop-color="#D9C9BC"/>
<stop offset="0.37" stop-color="#DACABC"/>
<stop offset="0.6" stop-color="#E2D0C3"/>
<stop offset="1" stop-color="#E5D3C5"/>
</linearGradient>
<linearGradient id="paint15_linear_1157_10792" x1="66.1361" y1="31.3981" x2="66.1361" y2="46.2262" gradientUnits="userSpaceOnUse">
<stop stop-color="#929292"/>
<stop offset="0.1" stop-color="#D8D8D8"/>
<stop offset="0.78" stop-color="#E8E8E8"/>
<stop offset="0.89" stop-color="#DDDDDD"/>
<stop offset="0.92" stop-color="#E3E3E3"/>
<stop offset="1" stop-color="#A2A2A2"/>
</linearGradient>
<radialGradient id="paint16_radial_1157_10792" cx="0" cy="0" r="1" gradientUnits="userSpaceOnUse" gradientTransform="translate(40.9932 38.564) scale(24.1454 24.9425)">
<stop stop-color="white"/>
<stop offset="0.14" stop-color="#EBEBEB"/>
<stop offset="0.47" stop-color="#E0DFDF"/>
<stop offset="0.84" stop-color="#C0C0C0"/>
<stop offset="0.94" stop-color="#C8C8C8"/>
<stop offset="1" stop-color="#ADADAD"/>
</radialGradient>
</defs>
</svg>
