<svg width="49" height="74" viewBox="0 0 49 74" fill="none" xmlns="http://www.w3.org/2000/svg">
<path fill-rule="evenodd" clip-rule="evenodd" d="M30.1029 63.5098L30.9412 57.4963C30.9412 56.6692 30.2706 55.9986 29.4434 55.9986H18.9255C18.0984 55.9986 17.4277 56.6692 17.4277 57.4963L18.266 63.5098H30.1252H30.1029Z" fill="url(#paint0_linear_1220_2225)"/>
<path fill-rule="evenodd" clip-rule="evenodd" d="M30.1029 63.5098L30.9412 57.4963C30.9412 56.6692 30.2706 55.9986 29.4434 55.9986H18.9255C18.0984 55.9986 17.4277 56.6692 17.4277 57.4963L18.266 63.5098H30.1252H30.1029Z" fill="url(#paint1_linear_1220_2225)" style="mix-blend-mode:multiply"/>
<path fill-rule="evenodd" clip-rule="evenodd" d="M18.9137 73.5586H29.4316C30.2587 73.5586 30.9294 72.888 30.9294 72.0608L30.0911 63.5101H18.2319L17.3936 72.0608C17.3936 72.888 18.0642 73.5586 18.8913 73.5586H18.9137Z" fill="url(#paint2_linear_1220_2225)"/>
<path fill-rule="evenodd" clip-rule="evenodd" d="M18.9137 73.5586H29.4316C30.2587 73.5586 30.9294 72.888 30.9294 72.0608L30.0911 63.5101H18.2319L17.3936 72.0608C17.3936 72.888 18.0642 73.5586 18.8913 73.5586H18.9137Z" fill="url(#paint3_linear_1220_2225)" style="mix-blend-mode:multiply"/>
<path fill-rule="evenodd" clip-rule="evenodd" d="M30.4242 7.95117L31.2625 1.93773C31.2625 1.1106 30.5918 0.439965 29.7647 0.439965L19.2468 0.439965C18.4197 0.439965 17.749 1.1106 17.749 1.93773L18.5873 7.95117L30.4465 7.95117H30.4242Z" fill="url(#paint4_linear_1220_2225)"/>
<path fill-rule="evenodd" clip-rule="evenodd" d="M30.4242 7.95117L31.2625 1.93773C31.2625 1.1106 30.5918 0.439964 29.7647 0.439964L19.2468 0.439964C18.4197 0.439964 17.749 1.1106 17.749 1.93773L18.5873 7.95117L30.4465 7.95117H30.4242Z" fill="url(#paint5_linear_1220_2225)" style="mix-blend-mode:multiply"/>
<path fill-rule="evenodd" clip-rule="evenodd" d="M19.235 18H29.7529C30.58 18 31.2507 17.3294 31.2507 16.5022L30.4124 7.95153H18.5531L17.7148 16.5022C17.7148 17.3294 18.3855 18 19.2126 18H19.235Z" fill="url(#paint6_linear_1220_2225)"/>
<path fill-rule="evenodd" clip-rule="evenodd" d="M19.235 18H29.7529C30.58 18 31.2507 17.3294 31.2507 16.5022L30.4124 7.95153H18.5531L17.7148 16.5022C17.7148 17.3294 18.3855 18 19.2126 18H19.235Z" fill="url(#paint7_linear_1220_2225)" style="mix-blend-mode:multiply"/>
<path d="M24.4995 13.4736C37.4988 13.4736 48.0391 24.0139 48.0391 37.0132C48.0391 50.0125 37.4988 60.5527 24.4995 60.5527C11.5002 60.5527 0.959961 50.0125 0.959961 37.0132C0.959961 24.0139 11.5002 13.4736 24.4995 13.4736Z" fill="url(#paint8_radial_1220_2225)"/>
<defs>
<linearGradient id="paint0_linear_1220_2225" x1="24.1789" y1="56.2445" x2="24.1789" y2="63.3868" gradientUnits="userSpaceOnUse">
<stop stop-color="#F5E2D3"/>
<stop offset="0.05" stop-color="#F2DFD0"/>
<stop offset="0.09" stop-color="#EAD7C9"/>
<stop offset="0.1" stop-color="#E5D3C5"/>
<stop offset="0.57" stop-color="#E2D0C2"/>
<stop offset="0.88" stop-color="#D9C9BC"/>
<stop offset="0.89" stop-color="#D9C9BC"/>
<stop offset="0.97" stop-color="#C8B09E"/>
<stop offset="1" stop-color="#C2A793"/>
</linearGradient>
<linearGradient id="paint1_linear_1220_2225" x1="30.9859" y1="59.7542" x2="17.4166" y2="59.7542" gradientUnits="userSpaceOnUse">
<stop stop-color="#B0B0B0"/>
<stop offset="0.09" stop-color="#C9C9C9"/>
<stop offset="0.78" stop-color="#EEEEEE"/>
<stop offset="0.89" stop-color="#D2D2D2"/>
<stop offset="0.92" stop-color="#C0BEBE"/>
<stop offset="1" stop-color="#ACACAC"/>
</linearGradient>
<linearGradient id="paint2_linear_1220_2225" x1="24.1782" y1="63.2083" x2="24.1782" y2="73.838" gradientUnits="userSpaceOnUse">
<stop stop-color="#A89180"/>
<stop offset="0.14" stop-color="#CCBAAC"/>
<stop offset="0.24" stop-color="#D4C3B6"/>
<stop offset="0.34" stop-color="#D9C9BC"/>
<stop offset="0.37" stop-color="#DACABC"/>
<stop offset="0.6" stop-color="#E2D0C3"/>
<stop offset="1" stop-color="#E5D3C5"/>
</linearGradient>
<linearGradient id="paint3_linear_1220_2225" x1="17.1924" y1="68.5399" x2="31.1865" y2="68.5399" gradientUnits="userSpaceOnUse">
<stop stop-color="#929292"/>
<stop offset="0.1" stop-color="#D8D8D8"/>
<stop offset="0.78" stop-color="#E8E8E8"/>
<stop offset="0.89" stop-color="#DDDDDD"/>
<stop offset="0.92" stop-color="#E3E3E3"/>
<stop offset="1" stop-color="#A2A2A2"/>
</linearGradient>
<linearGradient id="paint4_linear_1220_2225" x1="24.5002" y1="0.685866" x2="24.5002" y2="7.82822" gradientUnits="userSpaceOnUse">
<stop stop-color="#F5E2D3"/>
<stop offset="0.05" stop-color="#F2DFD0"/>
<stop offset="0.09" stop-color="#EAD7C9"/>
<stop offset="0.1" stop-color="#E5D3C5"/>
<stop offset="0.57" stop-color="#E2D0C2"/>
<stop offset="0.88" stop-color="#D9C9BC"/>
<stop offset="0.89" stop-color="#D9C9BC"/>
<stop offset="0.97" stop-color="#C8B09E"/>
<stop offset="1" stop-color="#C2A793"/>
</linearGradient>
<linearGradient id="paint5_linear_1220_2225" x1="31.3072" y1="4.19557" x2="17.7378" y2="4.19557" gradientUnits="userSpaceOnUse">
<stop stop-color="#B0B0B0"/>
<stop offset="0.09" stop-color="#C9C9C9"/>
<stop offset="0.78" stop-color="#EEEEEE"/>
<stop offset="0.89" stop-color="#D2D2D2"/>
<stop offset="0.92" stop-color="#C0BEBE"/>
<stop offset="1" stop-color="#ACACAC"/>
</linearGradient>
<linearGradient id="paint6_linear_1220_2225" x1="24.4995" y1="7.64974" x2="24.4995" y2="18.2794" gradientUnits="userSpaceOnUse">
<stop stop-color="#A89180"/>
<stop offset="0.14" stop-color="#CCBAAC"/>
<stop offset="0.24" stop-color="#D4C3B6"/>
<stop offset="0.34" stop-color="#D9C9BC"/>
<stop offset="0.37" stop-color="#DACABC"/>
<stop offset="0.6" stop-color="#E2D0C3"/>
<stop offset="1" stop-color="#E5D3C5"/>
</linearGradient>
<linearGradient id="paint7_linear_1220_2225" x1="17.5137" y1="12.9814" x2="31.5077" y2="12.9814" gradientUnits="userSpaceOnUse">
<stop stop-color="#929292"/>
<stop offset="0.1" stop-color="#D8D8D8"/>
<stop offset="0.78" stop-color="#E8E8E8"/>
<stop offset="0.89" stop-color="#DDDDDD"/>
<stop offset="0.92" stop-color="#E3E3E3"/>
<stop offset="1" stop-color="#A2A2A2"/>
</linearGradient>
<radialGradient id="paint8_radial_1220_2225" cx="0" cy="0" r="1" gradientUnits="userSpaceOnUse" gradientTransform="translate(24.276 37.4938) rotate(-90) scale(23.5396)">
<stop stop-color="white"/>
<stop offset="0.14" stop-color="#EBEBEB"/>
<stop offset="0.47" stop-color="#E0DFDF"/>
<stop offset="0.84" stop-color="#C0C0C0"/>
<stop offset="0.94" stop-color="#C8C8C8"/>
<stop offset="1" stop-color="#ADADAD"/>
</radialGradient>
</defs>
</svg>
