<svg width="133" height="141" viewBox="0 0 133 141" fill="none" xmlns="http://www.w3.org/2000/svg">
<g filter="url(#filter0_d_1157_10544)">
<path fill-rule="evenodd" clip-rule="evenodd" d="M23.1723 36.0919L14.7963 31.0351C13.5712 30.5104 12.1533 31.0789 11.6296 32.3047L4.97058 47.8918C4.44692 49.1176 5.01563 50.5368 6.24072 51.0615L15.6782 53.6336L23.1865 36.0588L23.1723 36.0919Z" fill="url(#paint0_linear_1157_10544)"/>
<path fill-rule="evenodd" clip-rule="evenodd" d="M23.1723 36.0919L14.7963 31.0351C13.5712 30.5104 12.1533 31.0789 11.6296 32.3047L4.97058 47.8918C4.44692 49.1176 5.01563 50.5368 6.24072 51.0615L15.6782 53.6336L23.1865 36.0588L23.1723 36.0919Z" fill="url(#paint1_linear_1157_10544)" style="mix-blend-mode:multiply"/>
<path fill-rule="evenodd" clip-rule="evenodd" d="M30.9673 59.0442L37.626 43.4575C38.1497 42.2318 37.581 40.8126 36.3559 40.288L23.161 36.1065L15.6531 53.6808L27.7866 60.3468C29.0116 60.8715 30.4295 60.303 30.9531 59.0773L30.9673 59.0442Z" fill="url(#paint2_linear_1157_10544)"/>
<path fill-rule="evenodd" clip-rule="evenodd" d="M30.9673 59.0442L37.626 43.4575C38.1497 42.2318 37.581 40.8126 36.3559 40.288L23.161 36.1065L15.6531 53.6808L27.7866 60.3468C29.0116 60.8715 30.4295 60.303 30.9531 59.0773L30.9673 59.0442Z" fill="url(#paint3_linear_1157_10544)" style="mix-blend-mode:multiply"/>
<path fill-rule="evenodd" clip-rule="evenodd" d="M108.456 101.05L116.254 106.96C117.417 107.611 118.887 107.194 119.537 106.031L127.797 91.2312C128.447 90.0674 128.031 88.5961 126.867 87.9455L117.753 84.3944L108.439 101.081L108.456 101.05Z" fill="url(#paint4_linear_1157_10544)"/>
<path fill-rule="evenodd" clip-rule="evenodd" d="M108.456 101.05L116.254 106.96C117.417 107.611 118.887 107.194 119.537 106.031L127.797 91.2312C128.447 90.0674 128.031 88.5961 126.867 87.9455L117.753 84.3944L108.439 101.081L108.456 101.05Z" fill="url(#paint5_linear_1157_10544)" style="mix-blend-mode:multiply"/>
<path fill-rule="evenodd" clip-rule="evenodd" d="M103.117 77.4045L94.8562 92.2035C94.2066 93.3673 94.623 94.8385 95.7861 95.4892L108.468 101.036L117.782 84.3498L106.417 76.4438C105.254 75.7932 103.784 76.2092 103.134 77.373L103.117 77.4045Z" fill="url(#paint6_linear_1157_10544)"/>
<path fill-rule="evenodd" clip-rule="evenodd" d="M103.117 77.4045L94.8562 92.2035C94.2066 93.3673 94.623 94.8385 95.7861 95.4892L108.468 101.036L117.782 84.3498L106.417 76.4438C105.254 75.7932 103.784 76.2092 103.134 77.373L103.117 77.4045Z" fill="url(#paint7_linear_1157_10544)" style="mix-blend-mode:multiply"/>
<path fill-rule="evenodd" clip-rule="evenodd" d="M116.162 41.1988L124.462 36.0226C125.484 35.168 125.621 33.6452 124.768 32.6217L113.913 19.6069C113.059 18.5834 111.538 18.4465 110.515 19.3011L103.945 26.552L116.185 41.2265L116.162 41.1988Z" fill="url(#paint8_linear_1157_10544)"/>
<path fill-rule="evenodd" clip-rule="evenodd" d="M116.162 41.1988L124.462 36.0226C125.484 35.168 125.621 33.6452 124.768 32.6217L113.913 19.6069C113.059 18.5834 111.538 18.4465 110.515 19.3011L103.945 26.552L116.185 41.2265L116.162 41.1988Z" fill="url(#paint9_linear_1157_10544)" style="mix-blend-mode:multiply"/>
<path fill-rule="evenodd" clip-rule="evenodd" d="M92.1909 37.7345L103.046 50.7492C103.9 51.7726 105.421 51.9095 106.444 51.0549L116.15 41.1825L103.911 26.5082L92.4739 34.3059C91.4512 35.1606 91.3142 36.6834 92.1679 37.7068L92.1909 37.7345Z" fill="url(#paint10_linear_1157_10544)"/>
<path fill-rule="evenodd" clip-rule="evenodd" d="M92.1909 37.7345L103.046 50.7492C103.9 51.7726 105.421 51.9095 106.444 51.0549L116.15 41.1825L103.911 26.5082L92.4739 34.3059C91.4512 35.1606 91.3142 36.6834 92.1679 37.7068L92.1909 37.7345Z" fill="url(#paint11_linear_1157_10544)" style="mix-blend-mode:multiply"/>
<path fill-rule="evenodd" clip-rule="evenodd" d="M70.9442 13.1804L71.3419 3.40205C71.2118 2.07526 70.0313 1.10527 68.7056 1.23573L51.8471 2.89475C50.5213 3.02521 49.5519 4.20676 49.682 5.53355L51.9716 15.0475L70.98 13.1769L70.9442 13.1804Z" fill="url(#paint12_linear_1157_10544)"/>
<path fill-rule="evenodd" clip-rule="evenodd" d="M70.9442 13.1804L71.3419 3.40205C71.2118 2.07526 70.0313 1.10527 68.7056 1.23573L51.8471 2.89475C50.5213 3.02521 49.5519 4.20676 49.682 5.53355L51.9716 15.0475L70.98 13.1769L70.9442 13.1804Z" fill="url(#paint13_linear_1157_10544)" style="mix-blend-mode:multiply"/>
<path fill-rule="evenodd" clip-rule="evenodd" d="M54.5918 31.0669L71.4506 29.4078C72.7764 29.2773 73.7458 28.0957 73.6157 26.7689L70.9269 13.1845L51.9182 15.0552L51.9197 28.904C52.0498 30.2308 53.2302 31.2009 54.556 31.0704L54.5918 31.0669Z" fill="url(#paint14_linear_1157_10544)"/>
<path fill-rule="evenodd" clip-rule="evenodd" d="M54.5918 31.0669L71.4506 29.4078C72.7764 29.2773 73.7458 28.0957 73.6157 26.7689L70.9269 13.1845L51.9182 15.0552L51.9197 28.904C52.0498 30.2308 53.2302 31.2009 54.556 31.0704L54.5918 31.0669Z" fill="url(#paint15_linear_1157_10544)" style="mix-blend-mode:multiply"/>
<path fill-rule="evenodd" clip-rule="evenodd" d="M65.2234 119.817L64.9713 129.6C65.1211 130.925 66.3158 131.877 67.6395 131.727L84.4716 129.816C85.7953 129.666 86.747 128.47 86.5972 127.145L84.1663 117.667L65.1877 119.821L65.2234 119.817Z" fill="url(#paint16_linear_1157_10544)"/>
<path fill-rule="evenodd" clip-rule="evenodd" d="M65.2234 119.817L64.9713 129.6C65.1211 130.925 66.3158 131.877 67.6395 131.727L84.4716 129.816C85.7953 129.666 86.747 128.47 86.5972 127.145L84.1663 117.667L65.1877 119.821L65.2234 119.817Z" fill="url(#paint17_linear_1157_10544)" style="mix-blend-mode:multiply"/>
<path fill-rule="evenodd" clip-rule="evenodd" d="M81.3075 101.689L64.4751 103.6C63.1514 103.75 62.1996 104.946 62.3495 106.271L65.2401 119.813L84.219 117.659L84.0116 103.812C83.8617 102.487 82.667 101.535 81.3433 101.685L81.3075 101.689Z" fill="url(#paint18_linear_1157_10544)"/>
<path fill-rule="evenodd" clip-rule="evenodd" d="M81.3075 101.689L64.4751 103.6C63.1514 103.75 62.1996 104.946 62.3495 106.271L65.2401 119.813L84.219 117.659L84.0116 103.812C83.8617 102.487 82.667 101.535 81.3433 101.685L81.3075 101.689Z" fill="url(#paint19_linear_1157_10544)" style="mix-blend-mode:multiply"/>
<path fill-rule="evenodd" clip-rule="evenodd" d="M20.702 89.4145L12.4089 94.6019C11.3874 95.4579 11.2524 96.9809 12.1074 98.0033L22.9801 111.003C23.8352 112.026 25.3567 112.161 26.3782 111.305L32.9381 104.045L20.6789 89.3869L20.702 89.4145Z" fill="url(#paint20_linear_1157_10544)"/>
<path fill-rule="evenodd" clip-rule="evenodd" d="M20.702 89.4145L12.4089 94.6019C11.3874 95.4579 11.2524 96.9809 12.1074 98.0033L22.9801 111.003C23.8352 112.026 25.3567 112.161 26.3782 111.305L32.9381 104.045L20.6789 89.3869L20.702 89.4145Z" fill="url(#paint21_linear_1157_10544)" style="mix-blend-mode:multiply"/>
<path fill-rule="evenodd" clip-rule="evenodd" d="M44.6776 92.8458L33.8051 79.8457C32.95 78.8234 31.4286 78.6886 30.4071 79.5446L20.7138 89.4301L32.9729 104.088L44.3993 96.2747C45.4208 95.4187 45.5558 93.8957 44.7007 92.8734L44.6776 92.8458Z" fill="url(#paint22_linear_1157_10544)"/>
<path fill-rule="evenodd" clip-rule="evenodd" d="M44.6776 92.8458L33.8051 79.8457C32.95 78.8234 31.4286 78.6886 30.4071 79.5446L20.7138 89.4301L32.9729 104.088L44.3993 96.2747C45.4208 95.4187 45.5558 93.8957 44.7007 92.8734L44.6776 92.8458Z" fill="url(#paint23_linear_1157_10544)" style="mix-blend-mode:multiply"/>
<path d="M111.067 63.363C111.067 87.256 91.7129 106.629 67.8432 106.629C43.9735 106.629 24.6191 87.256 24.6191 63.363C24.6191 39.47 43.9735 20.0967 67.8432 20.0967C91.7129 20.0967 111.067 39.47 111.067 63.363Z" fill="url(#paint24_radial_1157_10544)"/>
</g>
<defs>
<filter id="filter0_d_1157_10544" x="-0.6" y="0.4" width="134.2" height="140.2" filterUnits="userSpaceOnUse" color-interpolation-filters="sRGB">
<feFlood flood-opacity="0" result="BackgroundImageFix"/>
<feColorMatrix in="SourceAlpha" type="matrix" values="0 0 0 0 0 0 0 0 0 0 0 0 0 0 0 0 0 0 127 0" result="hardAlpha"/>
<feOffset dy="4"/>
<feGaussianBlur stdDeviation="2.3"/>
<feComposite in2="hardAlpha" operator="out"/>
<feColorMatrix type="matrix" values="0 0 0 0 0 0 0 0 0 0 0 0 0 0 0 0 0 0 0.25 0"/>
<feBlend mode="normal" in2="BackgroundImageFix" result="effect1_dropShadow_1157_10544"/>
<feBlend mode="normal" in="SourceGraphic" in2="effect1_dropShadow_1157_10544" result="shape"/>
</filter>
<linearGradient id="paint0_linear_1157_10544" x1="8.66079" y1="40.2625" x2="19.2436" y2="44.7836" gradientUnits="userSpaceOnUse">
<stop stop-color="#F5E2D3"/>
<stop offset="0.05" stop-color="#F2DFD0"/>
<stop offset="0.09" stop-color="#EAD7C9"/>
<stop offset="0.1" stop-color="#E5D3C5"/>
<stop offset="0.57" stop-color="#E2D0C2"/>
<stop offset="0.88" stop-color="#D9C9BC"/>
<stop offset="0.89" stop-color="#D9C9BC"/>
<stop offset="0.97" stop-color="#C8B09E"/>
<stop offset="1" stop-color="#C2A793"/>
</linearGradient>
<linearGradient id="paint1_linear_1157_10544" x1="18.1688" y1="32.401" x2="9.55994" y2="52.5026" gradientUnits="userSpaceOnUse">
<stop stop-color="#B0B0B0"/>
<stop offset="0.09" stop-color="#C9C9C9"/>
<stop offset="0.78" stop-color="#EEEEEE"/>
<stop offset="0.89" stop-color="#D2D2D2"/>
<stop offset="0.92" stop-color="#C0BEBE"/>
<stop offset="1" stop-color="#ACACAC"/>
</linearGradient>
<linearGradient id="paint2_linear_1157_10544" x1="18.9707" y1="44.6774" x2="34.7201" y2="51.4057" gradientUnits="userSpaceOnUse">
<stop stop-color="#A89180"/>
<stop offset="0.14" stop-color="#CCBAAC"/>
<stop offset="0.24" stop-color="#D4C3B6"/>
<stop offset="0.34" stop-color="#D9C9BC"/>
<stop offset="0.37" stop-color="#DACABC"/>
<stop offset="0.6" stop-color="#E2D0C3"/>
<stop offset="1" stop-color="#E5D3C5"/>
</linearGradient>
<linearGradient id="paint3_linear_1157_10544" x1="22.4445" y1="58.4117" x2="31.3227" y2="37.6817" gradientUnits="userSpaceOnUse">
<stop stop-color="#929292"/>
<stop offset="0.1" stop-color="#D8D8D8"/>
<stop offset="0.78" stop-color="#E8E8E8"/>
<stop offset="0.89" stop-color="#DDDDDD"/>
<stop offset="0.92" stop-color="#E3E3E3"/>
<stop offset="1" stop-color="#A2A2A2"/>
</linearGradient>
<linearGradient id="paint4_linear_1157_10544" x1="123.325" y1="98.4296" x2="113.276" y2="92.8204" gradientUnits="userSpaceOnUse">
<stop stop-color="#F5E2D3"/>
<stop offset="0.05" stop-color="#F2DFD0"/>
<stop offset="0.09" stop-color="#EAD7C9"/>
<stop offset="0.1" stop-color="#E5D3C5"/>
<stop offset="0.57" stop-color="#E2D0C2"/>
<stop offset="0.88" stop-color="#D9C9BC"/>
<stop offset="0.89" stop-color="#D9C9BC"/>
<stop offset="0.97" stop-color="#C8B09E"/>
<stop offset="1" stop-color="#C2A793"/>
</linearGradient>
<linearGradient id="paint5_linear_1157_10544" x1="113.044" y1="105.247" x2="123.719" y2="86.1637" gradientUnits="userSpaceOnUse">
<stop stop-color="#B0B0B0"/>
<stop offset="0.09" stop-color="#C9C9C9"/>
<stop offset="0.78" stop-color="#EEEEEE"/>
<stop offset="0.89" stop-color="#D2D2D2"/>
<stop offset="0.92" stop-color="#C0BEBE"/>
<stop offset="1" stop-color="#ACACAC"/>
</linearGradient>
<linearGradient id="paint6_linear_1157_10544" x1="113.536" y1="92.9539" x2="98.5812" y2="84.6063" gradientUnits="userSpaceOnUse">
<stop stop-color="#A89180"/>
<stop offset="0.14" stop-color="#CCBAAC"/>
<stop offset="0.24" stop-color="#D4C3B6"/>
<stop offset="0.34" stop-color="#D9C9BC"/>
<stop offset="0.37" stop-color="#DACABC"/>
<stop offset="0.6" stop-color="#E2D0C3"/>
<stop offset="1" stop-color="#E5D3C5"/>
</linearGradient>
<linearGradient id="paint7_linear_1157_10544" x1="111.526" y1="78.9305" x2="100.516" y2="98.6101" gradientUnits="userSpaceOnUse">
<stop stop-color="#929292"/>
<stop offset="0.1" stop-color="#D8D8D8"/>
<stop offset="0.78" stop-color="#E8E8E8"/>
<stop offset="0.89" stop-color="#DDDDDD"/>
<stop offset="0.92" stop-color="#E3E3E3"/>
<stop offset="1" stop-color="#A2A2A2"/>
</linearGradient>
<linearGradient id="paint8_linear_1157_10544" x1="119.03" y1="26.3615" x2="110.193" y2="33.7328" gradientUnits="userSpaceOnUse">
<stop stop-color="#F5E2D3"/>
<stop offset="0.05" stop-color="#F2DFD0"/>
<stop offset="0.09" stop-color="#EAD7C9"/>
<stop offset="0.1" stop-color="#E5D3C5"/>
<stop offset="0.57" stop-color="#E2D0C2"/>
<stop offset="0.88" stop-color="#D9C9BC"/>
<stop offset="0.89" stop-color="#D9C9BC"/>
<stop offset="0.97" stop-color="#C8B09E"/>
<stop offset="1" stop-color="#C2A793"/>
</linearGradient>
<linearGradient id="paint9_linear_1157_10544" x1="121.716" y1="38.4109" x2="107.696" y2="21.634" gradientUnits="userSpaceOnUse">
<stop stop-color="#B0B0B0"/>
<stop offset="0.09" stop-color="#C9C9C9"/>
<stop offset="0.78" stop-color="#EEEEEE"/>
<stop offset="0.89" stop-color="#D2D2D2"/>
<stop offset="0.92" stop-color="#C0BEBE"/>
<stop offset="1" stop-color="#ACACAC"/>
</linearGradient>
<linearGradient id="paint10_linear_1157_10544" x1="110.421" y1="33.5542" x2="97.268" y2="44.5246" gradientUnits="userSpaceOnUse">
<stop stop-color="#A89180"/>
<stop offset="0.14" stop-color="#CCBAAC"/>
<stop offset="0.24" stop-color="#D4C3B6"/>
<stop offset="0.34" stop-color="#D9C9BC"/>
<stop offset="0.37" stop-color="#DACABC"/>
<stop offset="0.6" stop-color="#E2D0C3"/>
<stop offset="1" stop-color="#E5D3C5"/>
</linearGradient>
<linearGradient id="paint11_linear_1157_10544" x1="96.6193" y1="30.419" x2="111.079" y2="47.7209" gradientUnits="userSpaceOnUse">
<stop stop-color="#929292"/>
<stop offset="0.1" stop-color="#D8D8D8"/>
<stop offset="0.78" stop-color="#E8E8E8"/>
<stop offset="0.89" stop-color="#DDDDDD"/>
<stop offset="0.92" stop-color="#E3E3E3"/>
<stop offset="1" stop-color="#A2A2A2"/>
</linearGradient>
<linearGradient id="paint12_linear_1157_10544" x1="60.306" y1="2.46057" x2="61.4335" y2="13.9172" gradientUnits="userSpaceOnUse">
<stop stop-color="#F5E2D3"/>
<stop offset="0.05" stop-color="#F2DFD0"/>
<stop offset="0.09" stop-color="#EAD7C9"/>
<stop offset="0.1" stop-color="#E5D3C5"/>
<stop offset="0.57" stop-color="#E2D0C2"/>
<stop offset="0.88" stop-color="#D9C9BC"/>
<stop offset="0.89" stop-color="#D9C9BC"/>
<stop offset="0.97" stop-color="#C8B09E"/>
<stop offset="1" stop-color="#C2A793"/>
</linearGradient>
<linearGradient id="paint13_linear_1157_10544" x1="71.7687" y1="7.01678" x2="50.0185" y2="9.14973" gradientUnits="userSpaceOnUse">
<stop stop-color="#B0B0B0"/>
<stop offset="0.09" stop-color="#C9C9C9"/>
<stop offset="0.78" stop-color="#EEEEEE"/>
<stop offset="0.89" stop-color="#D2D2D2"/>
<stop offset="0.92" stop-color="#C0BEBE"/>
<stop offset="1" stop-color="#ACACAC"/>
</linearGradient>
<linearGradient id="paint14_linear_1157_10544" x1="61.402" y1="13.6331" x2="63.08" y2="30.6841" gradientUnits="userSpaceOnUse">
<stop stop-color="#A89180"/>
<stop offset="0.14" stop-color="#CCBAAC"/>
<stop offset="0.24" stop-color="#D4C3B6"/>
<stop offset="0.34" stop-color="#D9C9BC"/>
<stop offset="0.37" stop-color="#DACABC"/>
<stop offset="0.6" stop-color="#E2D0C3"/>
<stop offset="1" stop-color="#E5D3C5"/>
</linearGradient>
<linearGradient id="paint15_linear_1157_10544" x1="51.0433" y1="23.2877" x2="73.4747" y2="21.088" gradientUnits="userSpaceOnUse">
<stop stop-color="#929292"/>
<stop offset="0.1" stop-color="#D8D8D8"/>
<stop offset="0.78" stop-color="#E8E8E8"/>
<stop offset="0.89" stop-color="#DDDDDD"/>
<stop offset="0.92" stop-color="#E3E3E3"/>
<stop offset="1" stop-color="#A2A2A2"/>
</linearGradient>
<linearGradient id="paint16_linear_1157_10544" x1="76.02" y1="130.377" x2="74.7217" y2="118.938" gradientUnits="userSpaceOnUse">
<stop stop-color="#F5E2D3"/>
<stop offset="0.05" stop-color="#F2DFD0"/>
<stop offset="0.09" stop-color="#EAD7C9"/>
<stop offset="0.1" stop-color="#E5D3C5"/>
<stop offset="0.57" stop-color="#E2D0C2"/>
<stop offset="0.88" stop-color="#D9C9BC"/>
<stop offset="0.89" stop-color="#D9C9BC"/>
<stop offset="0.97" stop-color="#C8B09E"/>
<stop offset="1" stop-color="#C2A793"/>
</linearGradient>
<linearGradient id="paint17_linear_1157_10544" x1="64.4907" y1="125.992" x2="86.207" y2="123.536" gradientUnits="userSpaceOnUse">
<stop stop-color="#B0B0B0"/>
<stop offset="0.09" stop-color="#C9C9C9"/>
<stop offset="0.78" stop-color="#EEEEEE"/>
<stop offset="0.89" stop-color="#D2D2D2"/>
<stop offset="0.92" stop-color="#C0BEBE"/>
<stop offset="1" stop-color="#ACACAC"/>
</linearGradient>
<linearGradient id="paint18_linear_1157_10544" x1="74.7574" y1="119.222" x2="72.8251" y2="102.199" gradientUnits="userSpaceOnUse">
<stop stop-color="#A89180"/>
<stop offset="0.14" stop-color="#CCBAAC"/>
<stop offset="0.24" stop-color="#D4C3B6"/>
<stop offset="0.34" stop-color="#D9C9BC"/>
<stop offset="0.37" stop-color="#DACABC"/>
<stop offset="0.6" stop-color="#E2D0C3"/>
<stop offset="1" stop-color="#E5D3C5"/>
</linearGradient>
<linearGradient id="paint19_linear_1157_10544" x1="84.9714" y1="109.414" x2="62.5749" y2="111.948" gradientUnits="userSpaceOnUse">
<stop stop-color="#929292"/>
<stop offset="0.1" stop-color="#D8D8D8"/>
<stop offset="0.78" stop-color="#E8E8E8"/>
<stop offset="0.89" stop-color="#DDDDDD"/>
<stop offset="0.92" stop-color="#E3E3E3"/>
<stop offset="1" stop-color="#A2A2A2"/>
</linearGradient>
<linearGradient id="paint20_linear_1157_10544" x1="17.8533" y1="104.256" x2="26.6812" y2="96.8725" gradientUnits="userSpaceOnUse">
<stop stop-color="#F5E2D3"/>
<stop offset="0.05" stop-color="#F2DFD0"/>
<stop offset="0.09" stop-color="#EAD7C9"/>
<stop offset="0.1" stop-color="#E5D3C5"/>
<stop offset="0.57" stop-color="#E2D0C2"/>
<stop offset="0.88" stop-color="#D9C9BC"/>
<stop offset="0.89" stop-color="#D9C9BC"/>
<stop offset="0.97" stop-color="#C8B09E"/>
<stop offset="1" stop-color="#C2A793"/>
</linearGradient>
<linearGradient id="paint21_linear_1157_10544" x1="15.151" y1="92.21" x2="29.1945" y2="108.968" gradientUnits="userSpaceOnUse">
<stop stop-color="#B0B0B0"/>
<stop offset="0.09" stop-color="#C9C9C9"/>
<stop offset="0.78" stop-color="#EEEEEE"/>
<stop offset="0.89" stop-color="#D2D2D2"/>
<stop offset="0.92" stop-color="#C0BEBE"/>
<stop offset="1" stop-color="#ACACAC"/>
</linearGradient>
<linearGradient id="paint22_linear_1157_10544" x1="26.4533" y1="97.0506" x2="39.5914" y2="86.0625" gradientUnits="userSpaceOnUse">
<stop stop-color="#A89180"/>
<stop offset="0.14" stop-color="#CCBAAC"/>
<stop offset="0.24" stop-color="#D4C3B6"/>
<stop offset="0.34" stop-color="#D9C9BC"/>
<stop offset="0.37" stop-color="#DACABC"/>
<stop offset="0.6" stop-color="#E2D0C3"/>
<stop offset="1" stop-color="#E5D3C5"/>
</linearGradient>
<linearGradient id="paint23_linear_1157_10544" x1="40.2591" y1="100.167" x2="25.7763" y2="82.8848" gradientUnits="userSpaceOnUse">
<stop stop-color="#929292"/>
<stop offset="0.1" stop-color="#D8D8D8"/>
<stop offset="0.78" stop-color="#E8E8E8"/>
<stop offset="0.89" stop-color="#DDDDDD"/>
<stop offset="0.92" stop-color="#E3E3E3"/>
<stop offset="1" stop-color="#A2A2A2"/>
</linearGradient>
<radialGradient id="paint24_radial_1157_10544" cx="0" cy="0" r="1" gradientUnits="userSpaceOnUse" gradientTransform="translate(66.9606 62.9521) scale(43.224 43.2663)">
<stop stop-color="white"/>
<stop offset="0.14" stop-color="#EBEBEB"/>
<stop offset="0.47" stop-color="#E0DFDF"/>
<stop offset="0.84" stop-color="#C0C0C0"/>
<stop offset="0.94" stop-color="#C8C8C8"/>
<stop offset="1" stop-color="#ADADAD"/>
</radialGradient>
</defs>
</svg>
